<?xml version="1.0" encoding="utf-8"?>
<!-- Generator: Adobe Illustrator 19.0.0, SVG Export Plug-In . SVG Version: 6.00 Build 0)  -->
<svg version="1.1" xmlns="http://www.w3.org/2000/svg" xmlns:xlink="http://www.w3.org/1999/xlink" x="0px" y="0px"
	 viewBox="0 0 1366 662" style="enable-background:new 0 0 1366 662;" xml:space="preserve">
<style type="text/css">
	.st0{fill:#FFFFFF;}
	.st1{fill:#93BE48;}
	.st2{fill:#00599D;}
	.st3{font-family:'Quattrocento';}
	.st4{font-size:24px;}
	.st5{fill:#7D7D7D;}
	.st6{font-family:'Helvetica-Light';}
	.st7{font-size:18px;}
	.st8{font-family:'Helvetica';}
	.st9{fill:#BCBCBC;}
	.st10{fill:#BFBFBF;}
	.st11{fill:#F99D1F;}
	.st12{fill:#D1D2D1;}
</style>
<g id="Layer_1">
</g>
<g id="Layer_2">
	<rect id="XMLID_23_" class="st0" width="1366" height="662"/>
	<path id="XMLID_10_" class="st1" d="M760,573.3H603c-11.8,0-21.5-9.7-21.5-21.5v0c0-11.8,9.7-21.5,21.5-21.5h157
		c11.8,0,21.5,9.7,21.5,21.5v0C781.5,563.6,771.9,573.3,760,573.3z"/>
	<g id="XMLID_11_">
	</g>
	<text id="XMLID_15_" transform="matrix(1 0 0 1 605.184 558.1336)" class="st0 st8 st7">Whoooooooooops!</text>
	<g id="XMLID_4_">
		<path id="XMLID_38_" class="st9" d="M61.6,448.7c0,0,4.6-0.1,13.3-0.2c8.7-0.1,21.4-0.2,37.6-0.4c16.2-0.2,35.9-0.3,58.4-0.5
			c22.6-0.2,48-0.3,75.8-0.3c27.8-0.1,57.9-0.2,89.7-0.1c8,0,16,0.1,24.2,0.1c8.2,0.1,16.4,0.1,24.8,0.2c16.7,0.1,33.8,0.3,51.1,0.4
			c34.7,0.3,70.6,0.4,107,0.5c18.2,0,36.6-0.1,55-0.1c18.4-0.1,37-0.2,55.5-0.3c18.5-0.1,37-0.3,55.5-0.4c18.4-0.1,36.8-0.2,55-0.3
			c36.5-0.1,72.3-0.2,107-0.3c17.4,0,34.4,0,51.1-0.1c16.7,0,33.1,0,49,0.1c31.8,0,61.9,0.2,89.7,0.3c27.8,0.2,53.2,0.3,75.8,0.5
			c22.6,0.2,42.2,0.4,58.4,0.5c32.4,0.4,50.9,0.6,50.9,0.6v0.4c0,0-18.5,0.2-50.9,0.6c-16.2,0.1-35.9,0.3-58.4,0.5
			c-22.6,0.1-48,0.3-75.8,0.5c-27.8,0.1-57.9,0.3-89.7,0.3c-15.9,0-32.3,0-49,0.1c-16.7,0-33.8,0-51.1-0.1
			c-34.7-0.1-70.6-0.2-107-0.3c-18.2-0.1-36.6-0.2-55-0.3c-18.4-0.1-37-0.3-55.5-0.4c-18.5-0.1-37-0.2-55.5-0.3
			c-18.4,0-36.8-0.1-55-0.1c-36.5,0-72.3,0.1-107,0.5c-17.4,0.1-34.4,0.3-51.1,0.4c-8.4,0.1-16.6,0.1-24.8,0.2
			c-8.2,0-16.2,0.1-24.2,0.1c-31.8,0.1-61.9,0-89.7-0.1c-27.8-0.1-53.2-0.1-75.8-0.3c-22.6-0.2-42.2-0.3-58.4-0.5
			c-16.2-0.2-28.9-0.3-37.6-0.4c-8.7-0.1-13.3-0.2-13.3-0.2V448.7z"/>
	</g>
	<circle id="XMLID_17_" class="st10" cx="605.2" cy="405.4" r="5"/>
	<circle id="XMLID_18_" class="st10" cx="757.7" cy="405.4" r="5"/>
	<g id="XMLID_1_">
		<g id="XMLID_6_">
			<path id="XMLID_12_" d="M604,340.2l13.1-0.4l-0.8,9l-12.4-0.4v5.6c0,4.8,0.1,10.6,0.2,14h-10.7c0.1-3.4,0.6-8.6,0.6-15.4v-4.2
				h-42.7l-0.2-1l52.2-67.2h0.7V340.2z M594.3,304.5h-0.2c-4,6-22.2,29.6-26.5,35.6h26.8V304.5z"/>
			<path id="XMLID_21_" d="M796.9,340.2l13.1-0.4l-0.8,9l-12.4-0.4v5.6c0,4.8,0.1,10.6,0.2,14h-10.7c0.1-3.4,0.6-8.6,0.6-15.4v-4.2
				h-42.7l-0.2-1l52.2-67.2h0.7V340.2z M787.2,304.5h-0.2c-4,6-22.2,29.6-26.5,35.6h26.8V304.5z"/>
		</g>
		<path id="XMLID_255_" class="st2" d="M551.9,137.9l-32,0c-1.1,0-2-0.9-2-2c0-1.1,0.9-2,2-2l32,0l0-32c0-1.1,0.9-2,2-2
			c1.1,0,2,0.9,2,2l0,32l32,0c1.1,0,2,0.9,2,2c0,0.6-0.2,1.1-0.6,1.4c-0.4,0.4-0.9,0.6-1.4,0.6l-32,0l0,32c0,0.6-0.2,1.1-0.6,1.4
			c-0.4,0.4-0.9,0.6-1.4,0.6c-1.1,0-2-0.9-2-2L551.9,137.9z"/>
		<path id="XMLID_243_" class="st11" d="M589.1,148.9c6.1,6.1,6.1,16.1,0,22.2c-6.1,6.1-16.1,6.1-22.2,0c-6.1-6.1-6.1-16.1,0-22.2
			C573,142.7,583,142.7,589.1,148.9"/>
		<path id="XMLID_169_" class="st11" d="M540.9,148.7c6.1,6.1,6.1,16.1,0,22.2c-6.1,6.1-16.1,6.1-22.2,0c-6.1-6.1-6.1-16.1,0-22.2
			C524.8,142.6,534.7,142.6,540.9,148.7"/>
		<path id="XMLID_16_" class="st11" d="M540.9,100.5c6.1,6.1,6.1,16.1,0,22.2c-6.1,6.1-16.1,6.1-22.2,0c-6.1-6.1-6.1-16.1,0-22.2
			C524.8,94.3,534.7,94.4,540.9,100.5"/>
		<path id="XMLID_2_" class="st11" d="M669.5,300.8c7.4-7.4,19.5-7.4,27,0c7.4,7.4,7.4,19.5,0,27c-7.4,7.4-19.5,7.4-27,0
			C662.1,320.3,662.1,308.2,669.5,300.8"/>
		<g id="XMLID_8_">
			<path id="XMLID_26_" class="st9" d="M609.1,128.7c0,0,0.5,0.2,1.3,0.7c0.9,0.4,2.2,1.1,3.7,2c0.8,0.5,1.7,1,2.6,1.6
				c0.9,0.6,1.9,1.2,3,2c1,0.8,2.1,1.5,3.2,2.5c1.1,0.9,2.3,1.9,3.4,3c2.4,2.1,4.7,4.6,7.2,7.2c2.4,2.7,4.8,5.7,7,8.9
				c2.3,3.2,4.5,6.6,6.6,10.2c2.1,3.6,4,7.3,5.8,11.1c1.8,3.8,3.4,7.7,4.9,11.6c1.5,3.9,2.7,7.8,3.9,11.6c1,3.8,2,7.5,2.6,11.1
				c0.7,3.6,1.2,6.9,1.6,10.1c0.2,1.6,0.3,3.1,0.5,4.5c0.1,1.4,0.2,2.8,0.3,4.1c0.1,2.6,0.2,4.8,0.1,6.6c0,1.8-0.1,3.3-0.2,4.3
				c-0.1,1-0.1,1.5-0.1,1.5l-0.2,0c0,0,0-0.5-0.1-1.5c0-1,0-2.4-0.2-4.2c-0.1-1.8-0.3-4-0.5-6.6c-0.2-1.3-0.3-2.6-0.5-4
				c-0.2-1.4-0.4-2.9-0.7-4.4c-0.5-3.1-1.1-6.4-1.9-9.9c-0.8-3.5-1.7-7.2-2.8-10.9c-1.1-3.8-2.3-7.6-3.6-11.5
				c-1.4-3.9-2.9-7.7-4.6-11.5c-1.7-3.8-3.6-7.5-5.6-11.1c-2-3.6-4.1-7-6.3-10.3c-2.2-3.3-4.5-6.2-6.8-9c-2.4-2.7-4.6-5.2-6.9-7.3
				c-1.1-1.1-2.3-2.1-3.3-3c-1.1-1-2.2-1.8-3.2-2.5c-1-0.8-2-1.4-2.9-2.1c-0.9-0.7-1.8-1.2-2.5-1.6c-1.5-1-2.8-1.7-3.7-2.1
				c-0.9-0.5-1.3-0.7-1.3-0.7L609.1,128.7z"/>
		</g>
		<g id="XMLID_9_">
			<path id="XMLID_29_" class="st9" d="M616.3,124.6c0,0,1.6,0.5,4.5,1.5c1.4,0.4,3.1,1.2,5,2c1,0.4,2,0.8,3.1,1.4
				c1,0.5,2.1,1.1,3.3,1.7c0.6,0.3,1.2,0.6,1.8,0.9c0.6,0.3,1.2,0.7,1.7,1.1c1.2,0.7,2.4,1.5,3.7,2.3c1.2,0.8,2.4,1.7,3.7,2.6
				c1.3,0.9,2.6,1.8,3.8,2.9c1.2,1,2.5,2.1,3.8,3.2c1.2,1.1,2.4,2.3,3.7,3.5c0.6,0.6,1.3,1.2,1.8,1.8l1.7,1.9l1.8,1.9
				c0.6,0.6,1.2,1.3,1.7,1.9c1.1,1.3,2.2,2.7,3.3,4c1.1,1.3,2,2.8,3.1,4.1c0.5,0.7,1,1.4,1.5,2.1c0.5,0.7,0.9,1.4,1.4,2.1
				c0.9,1.4,1.8,2.8,2.6,4.2c0.8,1.4,1.5,2.8,2.2,4.2c0.4,0.7,0.7,1.4,1.1,2c0.3,0.7,0.6,1.4,0.9,2.1c0.6,1.4,1.2,2.7,1.7,4
				c0.5,1.3,0.9,2.6,1.4,3.8c0.4,1.2,0.9,2.4,1.2,3.5c0.3,1.1,0.6,2.2,0.9,3.2c0.3,1,0.5,2,0.7,2.8c0.2,0.9,0.3,1.7,0.4,2.5
				c0.5,3,0.8,4.7,0.8,4.7l-0.2,0c0,0-0.5-1.7-1.3-4.5c-0.2-0.7-0.4-1.5-0.7-2.4c-0.3-0.9-0.6-1.8-0.9-2.8c-0.3-1-0.7-2-1.1-3.1
				c-0.4-1.1-0.9-2.2-1.4-3.4c-0.5-1.2-0.9-2.4-1.5-3.7c-0.6-1.2-1.2-2.5-1.8-3.8c-0.3-0.7-0.6-1.3-1-2c-0.4-0.7-0.7-1.3-1.1-2
				c-0.7-1.3-1.5-2.7-2.2-4.1c-0.8-1.4-1.7-2.7-2.5-4.1c-0.4-0.7-0.8-1.4-1.3-2.1c-0.5-0.7-0.9-1.4-1.4-2.1c-1-1.4-1.9-2.8-2.9-4.1
				c-1-1.3-2.1-2.7-3.1-4c-0.5-0.7-1.1-1.3-1.6-2l-1.7-1.9l-1.7-1.9c-0.6-0.6-1.2-1.2-1.8-1.8c-1.2-1.2-2.4-2.4-3.5-3.5
				c-1.2-1.1-2.5-2.2-3.7-3.2c-1.2-1.1-2.4-2-3.7-3c-1.2-0.9-2.4-1.9-3.6-2.7c-1.2-0.8-2.4-1.6-3.6-2.4c-0.6-0.4-1.1-0.8-1.7-1.1
				c-0.6-0.3-1.1-0.6-1.7-1c-1.1-0.6-2.2-1.2-3.2-1.8c-1-0.6-2-1-3-1.4c-1.9-0.9-3.5-1.7-5-2.1c-2.8-1-4.4-1.6-4.4-1.6L616.3,124.6z
				"/>
		</g>
		<g id="XMLID_13_">
			<path id="XMLID_62_" class="st12" d="M737.2,314.3c0,0-0.1,1.3-0.2,3.8c0,0.6,0,1.3-0.1,2.1c-0.1,0.8-0.2,1.6-0.4,2.5
				c-0.2,0.9-0.2,1.9-0.4,2.9c-0.2,1-0.5,2.1-0.8,3.2c-0.1,0.6-0.3,1.2-0.4,1.7c-0.2,0.6-0.4,1.2-0.6,1.8c-0.2,0.6-0.4,1.2-0.6,1.9
				c-0.2,0.6-0.4,1.3-0.7,1.9c-0.6,1.3-1.2,2.6-1.8,4c-0.7,1.4-1.5,2.7-2.3,4.2c-0.4,0.7-0.9,1.4-1.4,2.1c-0.5,0.7-1,1.4-1.5,2.1
				c-0.5,0.7-1.1,1.4-1.7,2.1c-0.6,0.7-1.2,1.4-1.8,2.1c-0.6,0.7-1.3,1.3-2,2c-0.7,0.7-1.4,1.3-2.1,2c-1.5,1.3-3.1,2.5-4.7,3.7
				c-6.7,4.7-15.2,8.1-24.6,9.2c-1.2,0.2-2.4,0.1-3.5,0.2c-0.6,0-1.2,0-1.8,0.1l-0.9,0c0,0-0.2,0-0.2,0l-0.1,0l-0.2,0l-0.4,0
				c-2.3-0.2-4.7-0.2-7.1-0.8c-4.9-0.7-9.7-2.4-14.3-4.5c-1.1-0.6-2.3-1.2-3.4-1.7c-1.1-0.6-2.2-1.4-3.3-2l-1.6-1l-1.5-1.2
				c-1-0.8-2.1-1.5-3-2.4c-3.9-3.4-7.4-7.4-10.4-11.7c-0.7-1.1-1.4-2.3-2.1-3.4c-0.2-0.3-0.4-0.6-0.5-0.9l-0.4-0.9l-0.9-1.8
				l-0.9-1.8c-0.3-0.6-0.5-1.2-0.7-1.9c-0.5-1.3-1-2.5-1.4-3.8l-1.1-3.9l-0.3-1l-0.2-1l-0.3-2l-0.3-2c-0.1-0.7-0.1-1.3-0.2-2
				l-0.3-4.1l0.1-4c0-0.7,0-1.3,0.1-2l0.3-2l0.3-2l0.1-1l0.2-1l0.9-4c1.5-5.2,3.7-10.2,6.7-14.7c3-4.5,6.5-8.6,10.5-12
				c1-0.9,2.1-1.6,3.1-2.4c0.5-0.4,1-0.8,1.6-1.2l1.7-1c1.1-0.7,2.2-1.4,3.4-2c1.2-0.6,2.3-1.1,3.5-1.7c4.7-2.1,9.6-3.6,14.6-4.2
				c2.4-0.5,4.9-0.5,7.3-0.6l0.5,0l0.2,0l0.1,0c0,0,0.3,0,0.2,0l0.9,0.1c0.6,0,1.2,0.1,1.7,0.1c0.6,0,1.2,0.1,1.7,0.1
				c0.6,0,1.1,0,1.7,0.2c1.2,0.2,2.4,0.4,3.5,0.6c0.6,0.1,1.2,0.2,1.7,0.3c0.6,0.1,1.1,0.3,1.7,0.4c1.1,0.3,2.2,0.6,3.3,0.9
				c1.1,0.4,2.1,0.8,3.1,1.2c2.1,0.7,4,1.8,5.9,2.7c1,0.4,1.8,1.1,2.7,1.6c0.9,0.6,1.7,1.1,2.6,1.7c6.7,4.8,11.6,10.6,15,16.2
				c0.8,1.4,1.6,2.8,2.3,4.2c0.6,1.4,1.2,2.7,1.8,4c0.3,0.6,0.5,1.3,0.7,1.9c0.2,0.6,0.4,1.3,0.6,1.9c0.2,0.6,0.4,1.2,0.6,1.8
				c0.1,0.6,0.3,1.2,0.4,1.8c0.3,1.1,0.5,2.2,0.8,3.2c0.2,1,0.3,2,0.4,2.9c0.1,0.9,0.2,1.7,0.4,2.5c0.1,0.8,0.1,1.5,0.1,2.1
				C737.1,313,737.2,314.3,737.2,314.3L737.2,314.3z M736.8,314.3c0,0-0.1-1.3-0.2-3.8c-0.1-0.6,0-1.3-0.2-2.1
				c-0.1-0.8-0.3-1.6-0.4-2.5c-0.2-0.9-0.3-1.8-0.5-2.8c-0.3-1-0.6-2-0.9-3.1c-1.3-4.4-3.5-9.6-7.2-14.8
				c-3.7-5.2-8.8-10.3-15.3-14.4c-3.3-1.9-6.9-3.9-10.8-5.2c-1-0.3-2-0.7-3-1c-1-0.3-2-0.5-3.1-0.8c-0.5-0.1-1-0.3-1.6-0.4
				c-0.5-0.1-1-0.2-1.6-0.2c-1-0.2-2.1-0.3-3.2-0.5c-0.5-0.1-1.1-0.1-1.7-0.1c-0.6,0-1.1,0-1.7-0.1c-0.6,0-1.2,0-1.7-0.1l-0.9,0
				l-0.7,0c-2.2,0.2-4.5,0.1-6.8,0.6c-4.6,0.5-9.1,2-13.5,3.8c-1.1,0.5-2.2,1-3.3,1.5c-1.1,0.5-2.1,1.2-3.1,1.8l-1.6,0.9
				c-0.5,0.3-1,0.7-1.5,1.1c-1,0.7-2,1.4-2.9,2.2c-3.8,3.1-7.1,6.9-10.1,11c-0.7,1.1-1.3,2.1-2,3.2c-0.2,0.3-0.3,0.5-0.5,0.8
				l-0.4,0.9l-0.9,1.7l-0.9,1.7c-0.3,0.6-0.5,1.2-0.7,1.8c-0.4,1.2-1,2.4-1.4,3.6l-1.1,3.7l-0.3,0.9l-0.2,0.9l-0.3,1.9l-0.3,1.9
				c-0.1,0.6-0.1,1.3-0.2,2l-0.3,4c0,5.1,0.6,10.4,1.9,15.4c1.5,5,3.6,9.8,6.5,14.1c0.7,1.1,1.5,2.1,2.3,3.1c0.4,0.5,0.8,1,1.2,1.5
				l1.3,1.4l1.3,1.4l0.6,0.7c0.2,0.2,0.5,0.4,0.7,0.6c1,0.8,1.9,1.7,2.9,2.5c1,0.8,2,1.5,3,2.2c0.5,0.4,1,0.7,1.5,1.1l1.6,0.9
				c1.1,0.6,2.1,1.3,3.2,1.8c1.1,0.5,2.2,1,3.4,1.5l0.8,0.4l0.9,0.3l1.7,0.6c1.1,0.4,2.3,0.8,3.4,1c1.2,0.3,2.3,0.5,3.5,0.8
				c1.1,0.3,2.3,0.3,3.4,0.5c2.2,0.4,4.7,0.3,7,0.4l0.4,0l0.2,0l0.1,0c0.1,0-0.1,0,0,0l0.8-0.1c0.6,0,1.1-0.1,1.7-0.1
				c1.1-0.1,2.2-0.1,3.3-0.3c8.8-1.1,16.7-4.2,23.2-8.3c6.5-4.1,11.6-9.3,15.3-14.5c3.8-5.2,5.9-10.4,7.2-14.8
				c0.3-1.1,0.6-2.2,0.9-3.2c0.2-1,0.4-2,0.5-2.8c0.1-0.9,0.3-1.7,0.4-2.5c0.1-0.8,0.1-1.5,0.2-2.1
				C736.7,315.6,736.8,314.3,736.8,314.3L736.8,314.3z"/>
		</g>
	</g>
</g>
</svg>
