<?xml version="1.0" encoding="utf-8"?>
<!-- Generator: Adobe Illustrator 16.0.0, SVG Export Plug-In . SVG Version: 6.00 Build 0)  -->
<!DOCTYPE svg PUBLIC "-//W3C//DTD SVG 1.1//EN" "http://www.w3.org/Graphics/SVG/1.1/DTD/svg11.dtd">
<svg version="1.1" id="Layer_1" xmlns="http://www.w3.org/2000/svg" xmlns:xlink="http://www.w3.org/1999/xlink" x="0px" y="0px"
	 width="80px" height="80px" viewBox="10 10 80 80" enable-background="new 10 10 80 80" xml:space="preserve">
<path fill="#0062A4" d="M51.859,51.965h30.536c1.056,0.014,1.92-0.852,1.91-1.911c0-1.058-0.853-1.915-1.91-1.915l-30.536-0.001
	V17.605c-0.008-1.057-0.859-1.911-1.912-1.911c-1.063,0-1.925,0.853-1.919,1.911l0.003,30.536l-30.535-0.003
	c-1.067,0.003-1.922,0.858-1.915,1.917c0,0.539,0.214,1.01,0.557,1.354c0.349,0.344,0.827,0.568,1.36,0.555h30.529v30.54
	c-0.005,0.54,0.211,1.01,0.563,1.364c0.348,0.341,0.818,0.567,1.356,0.553c1.06,0.007,1.912-0.842,1.915-1.917L51.859,51.965z"/>
<path fill="#F99C33" d="M16.385,62.41c5.842-5.84,15.362-5.846,21.21,0c5.852,5.851,5.842,15.358-0.003,21.209
	c-5.847,5.849-15.357,5.849-21.202,0C10.539,77.769,10.534,68.261,16.385,62.41"/>
<path fill="#F99C33" d="M62.415,62.291c5.841-5.841,15.354-5.845,21.205,0c5.839,5.843,5.839,15.356,0,21.205
	c-5.857,5.844-15.364,5.844-21.208,0C56.565,77.647,56.565,68.146,62.415,62.291"/>
<path fill="#F99C33" d="M16.504,16.377c5.841-5.841,15.36-5.841,21.202,0c5.851,5.852,5.845,15.36,0,21.205
	c-5.854,5.85-15.354,5.85-21.202,0.004C10.653,31.737,10.649,22.231,16.504,16.377"/>
</svg>
