<svg xmlns:dc="http://purl.org/dc/elements/1.1/" xmlns:cc="http://creativecommons.org/ns#" xmlns:rdf="http://www.w3.org/1999/02/22-rdf-syntax-ns#" xmlns:svg="http://www.w3.org/2000/svg" xmlns="http://www.w3.org/2000/svg" xmlns:sodipodi="http://sodipodi.sourceforge.net/DTD/sodipodi-0.dtd" xmlns:inkscape="http://www.inkscape.org/namespaces/inkscape" version="1.1" x="0px" y="0px" viewBox="10 10 80 80"><g transform="translate(0,-952.36218)"><path style="font-size:medium;font-style:normal;font-variant:normal;font-weight:normal;font-stretch:normal;text-indent:0;text-align:start;text-decoration:none;line-height:normal;letter-spacing:normal;word-spacing:normal;text-transform:none;direction:ltr;block-progression:tb;writing-mode:lr-tb;text-anchor:start;baseline-shift:baseline;opacity:1;color:#000000;fill:#F85B59;fill-opacity:1;stroke:none;stroke-width:2;marker:none;visibility:visible;display:inline;overflow:visible;enable-background:accumulate;font-family:Sans;-inkscape-font-specification:Sans" d="M 75.90625 12.96875 A 1.0001 1.0001 0 0 0 75.1875 13.40625 L 23.1875 85.40625 A 1.0001 1.0001 0 1 0 24.8125 86.5625 L 30.28125 79 L 94 79 A 1.0001 1.0001 0 0 0 95 78 L 95 22 A 1.0001 1.0001 0 0 0 94 21 L 72.15625 21 L 76.8125 14.5625 A 1.0001 1.0001 0 0 0 75.90625 12.96875 z M 5.8125 21 A 1.0001 1.0001 0 0 0 5 22 L 5 78 A 1.0001 1.0001 0 0 0 6 79 L 20 79 A 1.0001 1.0001 0 1 0 20 77 L 7 77 L 7 67 A 1.0011187 1.0011187 0 0 0 7.5625 66.8125 L 29 52.1875 L 35.34375 56.53125 A 1.0010773 1.0010773 0 1 0 36.46875 54.875 L 29.5625 50.15625 A 1.0001 1.0001 0 0 0 28.8125 50 A 1.0001 1.0001 0 0 0 28.4375 50.15625 L 7 64.78125 L 7 23 L 60.3125 23 A 1.0001 1.0001 0 1 0 60.3125 21 L 6 21 A 1.0001 1.0001 0 0 0 5.8125 21 z M 70.71875 23 L 93 23 L 93 58.65625 L 73.65625 42.21875 A 1.0001 1.0001 0 0 0 72.8125 42 A 1.0001 1.0001 0 0 0 72.34375 42.21875 L 47.9375 62.71875 L 43.96875 60.03125 L 70.71875 23 z M 30 28 C 25.593565 28 22 31.59357 22 36 C 22 40.40643 25.593565 44 30 44 C 34.406435 44 38 40.40643 38 36 C 38 31.59357 34.406435 28 30 28 z M 30 30 C 33.325555 30 36 32.67445 36 36 C 36 39.32555 33.325555 42 30 42 C 26.674445 42 24 39.32555 24 36 C 24 32.67445 26.674445 30 30 30 z M 73 44.3125 L 92.34375 60.75 A 1.0083687 1.0083687 0 0 0 93 61 L 93 77 L 31.71875 77 L 42.8125 61.65625 L 47.4375 64.8125 A 1.0001 1.0001 0 0 0 48.65625 64.75 L 73 44.3125 z " transform="translate(0,952.36218)"/></g></svg>