<svg id="Layer_1" data-name="Layer 1" xmlns="http://www.w3.org/2000/svg" xmlns:xlink="http://www.w3.org/1999/xlink" viewBox="0 0 1049.73 1025"><defs><style>.cls-1,.cls-11,.cls-12,.cls-7,.cls-8{fill:none;}.cls-2{clip-path:url(#clip-path);}.cls-3{clip-path:url(#clip-path-3);}.cls-4{clip-path:url(#clip-path-5);}.cls-5{fill:#fff;}.cls-6{fill:#555;}.cls-7,.cls-8{stroke:#aaa;}.cls-11,.cls-12,.cls-7,.cls-8{stroke-miterlimit:10;}.cls-11,.cls-7{stroke-width:7.38px;}.cls-12,.cls-8{stroke-width:3.69px;}.cls-9{clip-path:url(#clip-path-6);}.cls-10{fill:#aaa;}.cls-11,.cls-12{stroke:#555;}.cls-13{clip-path:url(#clip-path-7);}.cls-14{clip-path:url(#clip-path-8);}.cls-15{clip-path:url(#clip-path-9);}</style><clipPath id="clip-path"><rect class="cls-1" x="-2062.73" y="-380" width="1705.73" height="1753"/></clipPath><clipPath id="clip-path-3"><rect class="cls-1" x="-11.73" y="-2" width="1056" height="1024"/></clipPath><clipPath id="clip-path-5"><rect class="cls-1" x="-549.91" y="-1219.28" width="2131.08" height="3781.48"/></clipPath><clipPath id="clip-path-6"><path class="cls-1" d="M500.27,575.36,492,602.31c-18.33,59.4,44.31,111.31,99.28,82.27L871.16,536.67a75,75,0,0,0,31.27-101.35L375.15,174l14.76-53.13L942.65,397.57,998,268l-6.18,419.13-645.45,351L208.2,775.69,291.26,506.5Z"/></clipPath><clipPath id="clip-path-7"><circle class="cls-1" cx="407.93" cy="484.54" r="162.42"/></clipPath><clipPath id="clip-path-8"><path class="cls-1" d="M316.71,433.7s18.81-33.77,61.87-12.09,43.8,28.16,83.37,31.09c47.11,3.48,48.92,49.61,48.92,49.61l70.47-156.85L418.1,285.09,301.18,357.62Z"/></clipPath><clipPath id="clip-path-9"><path class="cls-1" d="M930.26,398.71l-44.48-36.82-19.95-10.54-18.51,20.49,26.1,13.46,55.38,16.16A1.59,1.59,0,0,0,930.26,398.71Z"/></clipPath></defs><title>Crossword_illustration_v1</title><g class="cls-3"><g class="cls-3"><g class="cls-4"><rect x="-18.09" y="-8" width="1068.72" height="1036"/></g></g></g><rect class="cls-5" x="163.02" y="180" width="724.04" height="632.01" transform="translate(-170.9 302.74) rotate(-27.85)"/><rect class="cls-6" x="713.91" y="439.78" width="208.68" height="208.68" transform="translate(-159.42 445.3) rotate(-27.85)"/><rect class="cls-5" x="680.44" y="496.31" width="15.31" height="15.31" transform="translate(-155.73 379.84) rotate(-27.85)"/><path class="cls-6" d="M691.14,494.11,698,507l-12.89,6.81-6.81-12.89,12.89-6.81m.3-1-14.19,7.5,7.5,14.19,14.19-7.5-7.5-14.19Z"/><rect class="cls-5" x="694.63" y="488.81" width="15.31" height="15.31" transform="translate(-150.59 385.65) rotate(-27.85)"/><path class="cls-6" d="M705.33,486.61l6.81,12.89-12.89,6.81-6.81-12.89,12.89-6.81m.31-1-14.2,7.5,7.5,14.19,14.2-7.5-7.5-14.19Z"/><rect class="cls-5" x="708.83" y="481.31" width="15.31" height="15.31" transform="translate(-145.44 391.36) rotate(-27.85)"/><path class="cls-6" d="M719.52,479.11,726.33,492l-12.89,6.81-6.81-12.89,12.89-6.81m.31-1-14.19,7.5,7.5,14.19,14.19-7.5-7.5-14.19Z"/><rect class="cls-5" x="723.02" y="473.81" width="15.31" height="15.31" transform="translate(-140.3 397.2) rotate(-27.86)"/><path class="cls-6" d="M733.72,471.61l6.81,12.89-12.89,6.81-6.81-12.89,12.89-6.81m.3-1-14.19,7.5,7.5,14.19,14.19-7.5L734,470.62Z"/><rect class="cls-5" x="737.21" y="466.31" width="15.31" height="15.31" transform="translate(-135.14 402.89) rotate(-27.85)"/><path class="cls-6" d="M747.91,464.12,754.72,477l-12.89,6.81L735,470.93l12.89-6.81m.31-1-14.2,7.5,7.5,14.19,14.2-7.5-7.5-14.19Z"/><rect class="cls-5" x="751.41" y="458.81" width="15.31" height="15.31" transform="translate(-129.99 408.65) rotate(-27.85)"/><path class="cls-6" d="M762.1,456.62l6.81,12.88L756,476.31l-6.81-12.88,12.89-6.81m.31-1-14.19,7.5,7.5,14.19,14.19-7.5-7.5-14.19Z"/><rect class="cls-5" x="779.79" y="443.81" width="15.31" height="15.31" transform="translate(-119.7 420.17) rotate(-27.85)"/><path class="cls-6" d="M790.49,441.62l6.81,12.89-12.89,6.81-6.81-12.89,12.89-6.81m.31-1-14.2,7.5,7.5,14.19,14.2-7.5-7.5-14.19Z"/><rect class="cls-5" x="793.98" y="436.31" width="15.31" height="15.31" transform="translate(-114.55 425.99) rotate(-27.85)"/><path class="cls-6" d="M804.68,434.12,811.49,447l-12.89,6.81-6.81-12.89,12.89-6.81m.31-1-14.19,7.5,7.5,14.19,14.19-7.5L805,433.12Z"/><rect class="cls-5" x="808.18" y="428.81" width="15.31" height="15.31" transform="translate(-109.4 431.72) rotate(-27.85)"/><path class="cls-6" d="M818.87,426.62l6.81,12.89-12.88,6.81L806,433.43l12.88-6.81m.31-1L805,433.12l7.5,14.19,14.19-7.5-7.5-14.19Z"/><rect class="cls-5" x="822.37" y="421.31" width="15.31" height="15.31" transform="translate(-104.26 437.46) rotate(-27.85)"/><path class="cls-6" d="M833.07,419.12,839.88,432,827,438.82l-6.81-12.89,12.89-6.81m.31-1-14.2,7.5,7.5,14.19,14.19-7.5-7.49-14.19Z"/><rect class="cls-5" x="836.56" y="413.81" width="15.31" height="15.31" transform="translate(-99.11 443.27) rotate(-27.85)"/><path class="cls-6" d="M847.26,411.62l6.81,12.89-12.89,6.81-6.81-12.89,12.89-6.81m.31-1-14.19,7.5,7.49,14.19,14.2-7.49-7.5-14.2Z"/><rect class="cls-5" x="850.76" y="406.31" width="15.31" height="15.31" transform="translate(-93.96 448.98) rotate(-27.85)"/><path class="cls-6" d="M861.45,404.12,868.26,417l-12.88,6.81-6.81-12.89,12.88-6.81m.31-1-14.19,7.5,7.5,14.2,14.19-7.5-7.5-14.2Z"/><rect class="cls-5" x="702.13" y="503" width="15.31" height="15.31" transform="translate(-156.35 390.75) rotate(-27.85)"/><path class="cls-6" d="M712.83,500.81l6.81,12.89-12.89,6.8-6.81-12.88,12.89-6.81m.31-1-14.2,7.5,7.5,14.19,14.2-7.5-7.5-14.19Z"/><rect class="cls-5" x="730.52" y="488" width="15.31" height="15.31" transform="translate(-146.06 402.32) rotate(-27.85)"/><path class="cls-6" d="M741.21,485.81,748,498.7l-12.88,6.81-6.81-12.89,12.88-6.81m.31-1-14.19,7.5,7.5,14.19L749,499l-7.5-14.19Z"/><rect class="cls-5" x="758.9" y="473" width="15.31" height="15.31" transform="translate(-135.76 413.85) rotate(-27.85)"/><path class="cls-6" d="M769.6,470.81l6.81,12.89-12.89,6.81-6.81-12.89,12.89-6.81m.31-1-14.19,7.5,7.49,14.19,14.2-7.49-7.5-14.2Z"/><rect class="cls-5" x="787.29" y="458" width="15.31" height="15.31" transform="translate(-125.46 425.32) rotate(-27.85)"/><path class="cls-6" d="M798,455.81l6.81,12.89-12.89,6.81-6.81-12.89L798,455.81m.31-1-14.2,7.5,7.5,14.2,14.19-7.5-7.49-14.2Z"/><rect class="cls-5" x="815.68" y="443" width="15.31" height="15.31" transform="translate(-115.17 436.84) rotate(-27.85)"/><path class="cls-6" d="M826.37,440.81l6.81,12.89-12.88,6.81-6.81-12.89,12.88-6.81m.31-1-14.19,7.5,7.5,14.2,14.19-7.5-7.5-14.2Z"/><rect class="cls-5" x="844.06" y="428" width="15.31" height="15.31" transform="translate(-104.87 448.4) rotate(-27.85)"/><path class="cls-6" d="M854.76,425.81l6.81,12.89-12.89,6.81-6.81-12.89,12.89-6.81m.31-1-14.2,7.49,7.5,14.2,14.2-7.5-7.5-14.19Z"/><rect class="cls-5" x="695.44" y="524.69" width="15.31" height="15.31" transform="translate(-167.26 390.18) rotate(-27.85)"/><path class="cls-6" d="M706.13,522.5l6.81,12.89-12.88,6.81-6.81-12.89,12.88-6.81m.31-1L692.25,529l7.5,14.19,14.19-7.49-7.5-14.2Z"/><rect class="cls-5" x="709.63" y="517.19" width="15.31" height="15.31" transform="translate(-162.11 395.9) rotate(-27.85)"/><path class="cls-6" d="M720.33,515l6.81,12.89-12.89,6.81-6.81-12.89L720.33,515m.31-1-14.2,7.5,7.5,14.2,14.19-7.5L720.64,514Z"/><rect class="cls-5" x="723.82" y="509.69" width="15.31" height="15.31" transform="translate(-156.97 401.73) rotate(-27.86)"/><path class="cls-6" d="M734.52,507.5l6.81,12.89-12.89,6.81-6.81-12.89,12.89-6.81m.31-1L720.64,514l7.49,14.2,14.2-7.5-7.5-14.2Z"/><rect class="cls-5" x="738.02" y="502.19" width="15.31" height="15.31" transform="translate(-151.81 407.42) rotate(-27.85)"/><path class="cls-6" d="M748.71,500l6.81,12.89-12.88,6.81-6.81-12.89L748.71,500m.31-1-14.19,7.5,7.5,14.2,14.19-7.5L749,499Z"/><rect class="cls-5" x="752.21" y="494.69" width="15.31" height="15.31" transform="translate(-146.67 413.18) rotate(-27.85)"/><path class="cls-6" d="M762.91,492.5l6.81,12.89-12.89,6.81L750,499.31l12.89-6.81m.3-1L749,499l7.5,14.2,14.19-7.5-7.5-14.2Z"/><rect class="cls-5" x="766.4" y="487.19" width="15.31" height="15.31" transform="translate(-141.52 419) rotate(-27.85)"/><path class="cls-6" d="M777.1,485l6.81,12.89L771,504.7l-6.81-12.89L777.1,485m.31-1-14.2,7.49,7.5,14.2,14.2-7.5L777.41,484Z"/><rect class="cls-5" x="780.6" y="479.7" width="15.31" height="15.31" transform="translate(-136.37 424.71) rotate(-27.85)"/><path class="cls-6" d="M791.29,477.5l6.81,12.89-12.88,6.81-6.81-12.89,12.88-6.81m.31-1L777.41,484l7.5,14.19,14.19-7.5-7.5-14.19Z"/><rect class="cls-5" x="794.79" y="472.2" width="15.31" height="15.31" transform="translate(-131.23 430.52) rotate(-27.85)"/><path class="cls-6" d="M805.49,470l6.81,12.89-12.89,6.81-6.81-12.89L805.49,470m.3-1-14.19,7.5,7.5,14.19,14.19-7.5L805.79,469Z"/><rect class="cls-5" x="808.98" y="464.7" width="15.31" height="15.31" transform="translate(-126.08 436.26) rotate(-27.85)"/><path class="cls-6" d="M819.68,462.5l6.81,12.89L813.6,482.2l-6.81-12.89,12.89-6.81m.31-1-14.2,7.5,7.5,14.19,14.2-7.5L820,461.51Z"/><rect class="cls-5" x="823.18" y="457.2" width="15.31" height="15.31" transform="translate(-120.93 441.99) rotate(-27.85)"/><path class="cls-6" d="M833.87,455l6.81,12.89-12.89,6.81L821,461.81,833.87,455m.31-1L820,461.51l7.5,14.19,14.19-7.5L834.18,454Z"/><rect class="cls-5" x="837.37" y="449.7" width="15.31" height="15.31" transform="translate(-115.78 447.81) rotate(-27.85)"/><path class="cls-6" d="M848.07,447.51l6.81,12.88L842,467.2l-6.81-12.89,12.89-6.8m.3-1L834.18,454l7.5,14.19,14.19-7.5-7.5-14.19Z"/><rect class="cls-5" x="851.56" y="442.2" width="15.31" height="15.31" transform="translate(-110.63 453.52) rotate(-27.85)"/><path class="cls-6" d="M862.26,440l6.81,12.88-12.89,6.81-6.81-12.88L862.26,440m.31-1-14.2,7.5,7.5,14.19,14.2-7.5L862.57,439Z"/><rect class="cls-5" x="865.76" y="434.7" width="15.31" height="15.31" transform="translate(-105.48 459.33) rotate(-27.85)"/><path class="cls-6" d="M876.45,432.51l6.81,12.88-12.89,6.81-6.81-12.88,12.89-6.81m.31-1L862.57,439l7.5,14.19,14.19-7.5-7.5-14.19Z"/><rect class="cls-5" x="717.13" y="531.39" width="15.31" height="15.31" transform="translate(-167.87 401.04) rotate(-27.85)"/><path class="cls-6" d="M727.83,529.19l6.81,12.89-12.89,6.81L714.94,536l12.89-6.81m.3-1-14.19,7.5,7.5,14.19,14.19-7.5-7.5-14.19Z"/><rect class="cls-5" x="745.52" y="516.39" width="15.31" height="15.31" transform="translate(-157.58 412.57) rotate(-27.85)"/><path class="cls-6" d="M756.21,514.19,763,527.08l-12.88,6.81L743.33,521l12.88-6.81m.31-1-14.19,7.5,7.5,14.19,14.19-7.5-7.5-14.19Z"/><rect class="cls-5" x="802.29" y="486.39" width="15.31" height="15.31" transform="translate(-136.99 435.67) rotate(-27.85)"/><path class="cls-6" d="M813,484.2l6.81,12.88-12.89,6.81L800.1,491,813,484.2m.3-1-14.19,7.5,7.5,14.19,14.19-7.5-7.5-14.19Z"/><rect class="cls-5" x="830.68" y="471.39" width="15.31" height="15.31" transform="translate(-126.69 447.19) rotate(-27.85)"/><path class="cls-6" d="M841.37,469.2l6.81,12.89-12.89,6.81L828.48,476l12.89-6.81m.31-1-14.19,7.5,7.5,14.19,14.19-7.5-7.5-14.19Z"/><rect class="cls-5" x="859.06" y="456.39" width="15.31" height="15.31" transform="translate(-116.4 458.66) rotate(-27.85)"/><path class="cls-6" d="M869.76,454.2l6.81,12.89-12.89,6.81L856.87,461l12.89-6.81m.31-1-14.2,7.5,7.5,14.19,14.2-7.5-7.5-14.19Z"/><rect class="cls-5" x="710.44" y="553.08" width="15.31" height="15.31" transform="translate(-178.78 400.43) rotate(-27.85)"/><path class="cls-6" d="M721.13,550.89l6.81,12.88-12.89,6.81-6.8-12.88,12.88-6.81m.31-1-14.19,7.5,7.5,14.19,14.19-7.5-7.5-14.19Z"/><rect class="cls-5" x="724.63" y="545.58" width="15.31" height="15.31" transform="translate(-173.65 406.27) rotate(-27.86)"/><path class="cls-6" d="M735.33,543.39l6.81,12.88-12.89,6.81-6.81-12.88,12.89-6.81m.3-1-14.19,7.5,7.5,14.19,14.19-7.5-7.5-14.19Z"/><rect class="cls-5" x="738.82" y="538.08" width="15.31" height="15.31" transform="translate(-168.49 411.95) rotate(-27.85)"/><path class="cls-6" d="M749.52,535.89l6.81,12.89-12.89,6.8-6.81-12.88,12.89-6.81m.31-1-14.2,7.5,7.5,14.19,14.2-7.5-7.5-14.19Z"/><rect class="cls-5" x="753.02" y="530.58" width="15.31" height="15.31" transform="translate(-163.34 417.72) rotate(-27.85)"/><path class="cls-6" d="M763.71,528.39l6.81,12.89-12.89,6.81-6.81-12.89,12.89-6.81m.31-1-14.19,7.5,7.5,14.19,14.19-7.5L764,527.39Z"/><rect class="cls-5" x="781.4" y="515.58" width="15.31" height="15.31" transform="translate(-153.04 429.24) rotate(-27.85)"/><path class="cls-6" d="M792.1,513.39l6.81,12.89L786,533.09l-6.81-12.89,12.89-6.81m.31-1-14.2,7.5,7.5,14.19,14.2-7.5-7.5-14.19Z"/><rect class="cls-5" x="795.6" y="508.08" width="15.31" height="15.31" transform="translate(-147.9 435.05) rotate(-27.85)"/><path class="cls-6" d="M806.29,505.89l6.81,12.89-12.89,6.81L793.4,512.7l12.89-6.81m.31-1-14.19,7.5,7.5,14.19,14.19-7.49-7.5-14.2Z"/><rect class="cls-5" x="809.79" y="500.58" width="15.31" height="15.31" transform="translate(-142.75 440.79) rotate(-27.85)"/><path class="cls-6" d="M820.49,498.39l6.81,12.89-12.89,6.81L807.6,505.2l12.89-6.81m.3-1-14.19,7.5,7.5,14.2,14.19-7.5-7.5-14.2Z"/><rect class="cls-5" x="823.98" y="493.08" width="15.31" height="15.31" transform="translate(-137.6 446.53) rotate(-27.85)"/><path class="cls-6" d="M834.68,490.89l6.81,12.89-12.89,6.81-6.81-12.89,12.89-6.81m.31-1-14.2,7.5,7.5,14.2,14.2-7.5-7.5-14.2Z"/><rect class="cls-5" x="838.18" y="485.58" width="15.31" height="15.31" transform="translate(-132.45 452.34) rotate(-27.85)"/><path class="cls-6" d="M848.87,483.39l6.81,12.89-12.89,6.81L836,490.2l12.89-6.81m.31-1L835,489.89l7.5,14.2,14.19-7.5-7.5-14.2Z"/><rect class="cls-5" x="852.37" y="478.08" width="15.31" height="15.31" transform="translate(-127.3 458.05) rotate(-27.85)"/><path class="cls-6" d="M863.07,475.89l6.81,12.89L857,495.59l-6.81-12.89,12.89-6.81m.3-1-14.19,7.5,7.5,14.2,14.19-7.5-7.5-14.2Z"/><rect class="cls-5" x="866.56" y="470.58" width="15.31" height="15.31" transform="translate(-122.16 463.87) rotate(-27.85)"/><path class="cls-6" d="M877.26,468.39l6.81,12.89-12.89,6.81-6.81-12.89,12.89-6.81m.31-1-14.2,7.5,7.5,14.2,14.2-7.5-7.5-14.2Z"/><rect class="cls-5" x="880.76" y="463.08" width="15.31" height="15.31" transform="translate(-117.01 469.6) rotate(-27.85)"/><path class="cls-6" d="M891.45,460.89l6.81,12.89-12.89,6.81-6.81-12.89,12.89-6.81m.31-1-14.19,7.49,7.5,14.2,14.19-7.5-7.5-14.19Z"/><rect class="cls-5" x="760.52" y="544.77" width="15.31" height="15.31" transform="translate(-169.11 422.92) rotate(-27.85)"/><path class="cls-6" d="M771.21,542.58,778,555.47l-12.89,6.81-6.81-12.89,12.89-6.81m.31-1-14.19,7.5,7.5,14.2,14.19-7.5-7.5-14.2Z"/><rect class="cls-5" x="788.9" y="529.77" width="15.31" height="15.31" transform="translate(-158.8 434.39) rotate(-27.85)"/><path class="cls-6" d="M799.6,527.58l6.81,12.89-12.89,6.81-6.81-12.89,12.89-6.81m.31-1-14.2,7.5,7.5,14.2,14.2-7.5-7.5-14.2Z"/><rect class="cls-5" x="817.29" y="514.78" width="15.31" height="15.31" transform="translate(-148.51 445.91) rotate(-27.85)"/><path class="cls-6" d="M828,512.58l6.8,12.89-12.88,6.81-6.81-12.89L828,512.58m.3-1-14.19,7.5,7.5,14.19,14.19-7.5-7.5-14.19Z"/><rect class="cls-5" x="874.06" y="484.78" width="15.31" height="15.31" transform="translate(-127.92 469.02) rotate(-27.85)"/><path class="cls-6" d="M884.76,482.59l6.81,12.88-12.89,6.81-6.81-12.88,12.89-6.81m.31-1-14.2,7.5,7.5,14.19,14.19-7.5-7.49-14.19Z"/><rect class="cls-5" x="725.44" y="581.46" width="15.31" height="15.31" transform="translate(-190.32 410.8) rotate(-27.86)"/><path class="cls-6" d="M736.13,579.27l6.81,12.89L730.05,599l-6.81-12.89,12.89-6.81m.31-1-14.19,7.5,7.5,14.2,14.19-7.5-7.5-14.2Z"/><rect class="cls-5" x="739.63" y="573.96" width="15.31" height="15.31" transform="translate(-185.16 416.49) rotate(-27.85)"/><path class="cls-6" d="M750.33,571.77l6.81,12.89-12.89,6.81-6.81-12.89,12.89-6.81m.3-1-14.19,7.49,7.5,14.2,14.19-7.5-7.5-14.19Z"/><rect class="cls-5" x="753.82" y="566.47" width="15.31" height="15.31" transform="translate(-180.01 422.25) rotate(-27.85)"/><path class="cls-6" d="M764.52,564.27l6.81,12.89L758.44,584l-6.81-12.89,12.89-6.81m.31-1-14.2,7.5,7.5,14.19,14.2-7.5-7.5-14.19Z"/><rect class="cls-5" x="768.02" y="558.97" width="15.31" height="15.31" transform="translate(-174.87 428.06) rotate(-27.85)"/><path class="cls-6" d="M778.71,556.77l6.81,12.89-12.89,6.81-6.81-12.89,12.89-6.81m.31-1-14.19,7.5,7.5,14.19,14.19-7.5L779,555.78Z"/><rect class="cls-5" x="782.21" y="551.47" width="15.31" height="15.31" transform="translate(-169.71 433.77) rotate(-27.85)"/><path class="cls-6" d="M792.91,549.27l6.8,12.89L786.83,569,780,556.08l12.89-6.81m.3-1L779,555.78l7.5,14.19,14.19-7.5-7.5-14.19Z"/><rect class="cls-5" x="796.4" y="543.97" width="15.31" height="15.31" transform="translate(-164.57 439.59) rotate(-27.85)"/><path class="cls-6" d="M807.1,541.78l6.81,12.88L801,561.47l-6.81-12.89,12.89-6.8m.31-1-14.2,7.5,7.5,14.19,14.2-7.5-7.5-14.19Z"/><rect class="cls-5" x="824.79" y="528.97" width="15.31" height="15.31" transform="translate(-154.27 451.06) rotate(-27.85)"/><path class="cls-6" d="M835.48,526.78l6.81,12.88-12.88,6.81-6.81-12.88,12.88-6.81m.31-1-14.19,7.5,7.5,14.19,14.19-7.5-7.5-14.19Z"/><rect class="cls-5" x="838.98" y="521.47" width="15.31" height="15.31" transform="translate(-149.13 456.88) rotate(-27.85)"/><path class="cls-6" d="M849.68,519.28l6.81,12.89L843.6,539l-6.81-12.88,12.89-6.81m.31-1-14.2,7.5,7.5,14.19,14.19-7.5L850,518.28Z"/><rect class="cls-5" x="853.17" y="513.97" width="15.31" height="15.31" transform="translate(-143.98 462.58) rotate(-27.85)"/><path class="cls-6" d="M863.87,511.78l6.81,12.89-12.89,6.81L851,518.59l12.89-6.81m.31-1L850,518.28l7.49,14.19,14.2-7.5-7.5-14.19Z"/><rect class="cls-5" x="867.37" y="506.47" width="15.31" height="15.31" transform="translate(-138.83 468.4) rotate(-27.85)"/><path class="cls-6" d="M878.06,504.28l6.81,12.89L872,524l-6.81-12.89,12.88-6.81m.31-1-14.19,7.5,7.5,14.19,14.19-7.5-7.5-14.19Z"/><rect class="cls-5" x="881.56" y="498.97" width="15.31" height="15.31" transform="translate(-133.68 474.14) rotate(-27.85)"/><path class="cls-6" d="M892.26,496.78l6.81,12.89-12.89,6.81-6.81-12.89,12.89-6.81m.3-1-14.19,7.5,7.5,14.19,14.19-7.5-7.5-14.19Z"/><rect class="cls-5" x="895.75" y="491.47" width="15.31" height="15.31" transform="translate(-128.53 479.87) rotate(-27.85)"/><path class="cls-6" d="M906.45,489.28l6.81,12.89L900.37,509l-6.81-12.89,12.89-6.81m.31-1-14.2,7.5,7.5,14.19,14.2-7.49-7.5-14.2Z"/><rect class="cls-5" x="747.13" y="588.16" width="15.31" height="15.31" transform="translate(-190.92 421.63) rotate(-27.85)"/><path class="cls-6" d="M757.82,586l6.81,12.88-12.88,6.81-6.81-12.88L757.82,586m.31-1-14.19,7.5,7.5,14.19,14.19-7.5L758.13,585Z"/><rect class="cls-5" x="803.9" y="558.16" width="15.31" height="15.31" transform="translate(-170.34 444.74) rotate(-27.85)"/><path class="cls-6" d="M814.6,556l6.81,12.89-12.89,6.81-6.81-12.89L814.6,556m.31-1-14.2,7.5,7.5,14.19,14.19-7.5L814.91,555Z"/><rect class="cls-5" x="832.29" y="543.16" width="15.31" height="15.31" transform="translate(-160.04 456.26) rotate(-27.85)"/><path class="cls-6" d="M843,541l6.81,12.89-12.88,6.81-6.81-12.89L843,541m.31-1-14.19,7.5,7.5,14.19,14.19-7.49-7.5-14.2Z"/><rect class="cls-5" x="860.67" y="528.16" width="15.31" height="15.31" transform="translate(-149.74 467.73) rotate(-27.85)"/><path class="cls-6" d="M871.37,526l6.81,12.89-12.89,6.81-6.81-12.89L871.37,526m.31-1-14.2,7.5,7.5,14.2,14.2-7.5-7.5-14.2Z"/><rect class="cls-5" x="740.43" y="609.85" width="15.31" height="15.31" transform="translate(-201.83 421.02) rotate(-27.85)"/><path class="cls-6" d="M751.13,607.66l6.81,12.89-12.89,6.81-6.81-12.89,12.89-6.81m.31-1-14.19,7.5,7.5,14.19,14.19-7.5-7.5-14.19Z"/><rect class="cls-5" x="754.63" y="602.35" width="15.31" height="15.31" transform="translate(-196.68 426.78) rotate(-27.85)"/><path class="cls-6" d="M765.32,600.16l6.81,12.89-12.88,6.81L752.44,607l12.88-6.81m.31-1-14.19,7.5,7.5,14.19,14.19-7.5-7.5-14.19Z"/><rect class="cls-5" x="768.82" y="594.85" width="15.31" height="15.31" transform="translate(-191.54 432.6) rotate(-27.85)"/><path class="cls-6" d="M779.52,592.66l6.81,12.89-12.89,6.81-6.81-12.89,12.89-6.81m.31-1-14.2,7.5,7.5,14.19,14.19-7.49-7.49-14.2Z"/><rect class="cls-5" x="783.01" y="587.35" width="15.31" height="15.31" transform="translate(-186.39 438.31) rotate(-27.85)"/><path class="cls-6" d="M793.71,585.16l6.81,12.89-12.89,6.81L780.82,592l12.89-6.81m.31-1-14.19,7.5,7.49,14.2,14.2-7.5-7.5-14.2Z"/><rect class="cls-5" x="797.21" y="579.85" width="15.31" height="15.31" transform="translate(-181.25 444.12) rotate(-27.85)"/><path class="cls-6" d="M807.9,577.66l6.81,12.89-12.88,6.81L795,584.47l12.88-6.81m.31-1L794,584.16l7.5,14.2,14.19-7.5-7.5-14.2Z"/><rect class="cls-5" x="811.4" y="572.35" width="15.31" height="15.31" transform="translate(-176.09 449.86) rotate(-27.85)"/><path class="cls-6" d="M822.1,570.16l6.81,12.89L816,589.86,809.21,577l12.89-6.81m.3-1-14.19,7.5,7.5,14.2,14.19-7.5-7.5-14.2Z"/><rect class="cls-5" x="825.59" y="564.85" width="15.31" height="15.31" transform="translate(-170.94 455.59) rotate(-27.85)"/><path class="cls-6" d="M836.29,562.66l6.81,12.89-12.89,6.81-6.81-12.89,12.89-6.81m.31-1-14.2,7.5,7.5,14.2,14.2-7.5-7.5-14.2Z"/><rect class="cls-5" x="839.79" y="557.35" width="15.31" height="15.31" transform="translate(-165.8 461.41) rotate(-27.85)"/><path class="cls-6" d="M850.48,555.16l6.81,12.89-12.89,6.81L837.6,562l12.88-6.81m.31-1-14.19,7.49,7.5,14.2,14.19-7.5-7.5-14.19Z"/><rect class="cls-5" x="868.17" y="542.36" width="15.31" height="15.31" transform="translate(-155.5 472.94) rotate(-27.85)"/><path class="cls-6" d="M878.87,540.16l6.81,12.89-12.89,6.81L866,547l12.89-6.81m.31-1-14.2,7.5,7.5,14.19,14.2-7.5-7.5-14.19Z"/><rect class="cls-5" x="882.37" y="534.86" width="15.31" height="15.31" transform="translate(-150.35 478.67) rotate(-27.85)"/><path class="cls-6" d="M893.06,532.66l6.81,12.89L887,552.36l-6.81-12.89,12.89-6.81m.31-1-14.19,7.5,7.5,14.19,14.19-7.5-7.5-14.19Z"/><rect class="cls-5" x="896.56" y="527.36" width="15.31" height="15.31" transform="translate(-145.21 484.4) rotate(-27.85)"/><path class="cls-6" d="M907.26,525.16l6.81,12.89-12.89,6.81L894.37,532l12.89-6.81m.3-1-14.19,7.5,7.5,14.19,14.19-7.5-7.5-14.19Z"/><rect class="cls-5" x="910.75" y="519.86" width="15.31" height="15.31" transform="translate(-140.06 490.22) rotate(-27.85)"/><path class="cls-6" d="M921.45,517.67l6.81,12.88-12.89,6.81-6.81-12.88,12.89-6.81m.31-1-14.2,7.5,7.5,14.19,14.2-7.5-7.5-14.19Z"/><rect class="cls-5" x="762.13" y="616.54" width="15.31" height="15.31" transform="translate(-202.45 431.98) rotate(-27.85)"/><path class="cls-6" d="M772.82,614.35l6.81,12.89-12.88,6.81-6.81-12.89,12.88-6.81m.31-1-14.19,7.5,7.5,14.2,14.19-7.5-7.5-14.2Z"/><rect class="cls-5" x="790.51" y="601.55" width="15.31" height="15.31" transform="translate(-192.15 443.45) rotate(-27.85)"/><path class="cls-6" d="M801.21,599.35,808,612.24l-12.89,6.81-6.81-12.89,12.89-6.81m.31-1-14.2,7.5,7.5,14.19,14.2-7.5-7.5-14.19Z"/><rect class="cls-5" x="818.9" y="586.55" width="15.31" height="15.31" transform="translate(-181.85 454.98) rotate(-27.85)"/><path class="cls-6" d="M829.6,584.35l6.81,12.89-12.89,6.81-6.81-12.89,12.89-6.81m.3-1-14.19,7.5,7.5,14.19,14.19-7.5-7.5-14.19Z"/><rect class="cls-5" x="875.67" y="556.55" width="15.31" height="15.31" transform="translate(-161.27 478.08) rotate(-27.85)"/><path class="cls-6" d="M886.37,554.36l6.81,12.89-12.89,6.8-6.81-12.88,12.89-6.81m.31-1-14.2,7.5,7.5,14.19,14.2-7.5-7.5-14.19Z"/><rect class="cls-5" x="904.06" y="541.55" width="15.31" height="15.31" transform="translate(-150.97 489.61) rotate(-27.85)"/><path class="cls-6" d="M914.76,539.36l6.81,12.89-12.89,6.81-6.81-12.89,12.89-6.81m.3-1-14.19,7.5,7.5,14.19,14.19-7.5-7.5-14.19Z"/><rect class="cls-5" x="755.43" y="638.24" width="15.31" height="15.31" transform="translate(-213.35 431.31) rotate(-27.85)"/><path class="cls-6" d="M766.13,636l6.81,12.89-12.89,6.81-6.81-12.89L766.13,636m.31-1-14.2,7.5,7.5,14.19,14.2-7.5-7.5-14.19Z"/><rect class="cls-5" x="769.63" y="630.74" width="15.31" height="15.31" transform="translate(-208.22 437.13) rotate(-27.85)"/><path class="cls-6" d="M780.32,628.55l6.81,12.88-12.89,6.81-6.81-12.88,12.89-6.81m.31-1-14.19,7.5,7.5,14.19,14.19-7.5-7.5-14.19Z"/><rect class="cls-5" x="783.82" y="623.24" width="15.31" height="15.31" transform="translate(-203.06 442.84) rotate(-27.85)"/><path class="cls-6" d="M794.52,621.05l6.81,12.88-12.89,6.81-6.81-12.88,12.89-6.81m.3-1-14.19,7.5,7.5,14.19,14.19-7.5-7.5-14.19Z"/><rect class="cls-5" x="798.01" y="615.74" width="15.31" height="15.31" transform="translate(-197.92 448.66) rotate(-27.85)"/><path class="cls-6" d="M808.71,613.55l6.81,12.88-12.89,6.81-6.81-12.88,12.89-6.81m.31-1-14.2,7.5,7.5,14.19,14.2-7.5L809,612.55Z"/><rect class="cls-5" x="812.21" y="608.24" width="15.31" height="15.31" transform="translate(-192.77 454.39) rotate(-27.85)"/><path class="cls-6" d="M822.9,606.05l6.81,12.89-12.89,6.81L810,612.86l12.89-6.81m.31-1L809,612.55l7.5,14.19,14.19-7.5-7.5-14.19Z"/><rect class="cls-5" x="826.4" y="600.74" width="15.31" height="15.31" transform="translate(-187.61 460.12) rotate(-27.85)"/><path class="cls-6" d="M837.1,598.55l6.81,12.89L831,618.25l-6.81-12.89,12.89-6.81m.3-1-14.19,7.5,7.5,14.19,14.19-7.5-7.5-14.19Z"/><rect class="cls-5" x="840.59" y="593.24" width="15.31" height="15.31" transform="translate(-182.47 465.94) rotate(-27.85)"/><path class="cls-6" d="M851.29,591.05l6.81,12.89-12.89,6.81-6.81-12.89,12.89-6.81m.31-1-14.2,7.5,7.5,14.19,14.2-7.5-7.5-14.19Z"/><rect class="cls-5" x="854.79" y="585.74" width="15.31" height="15.31" transform="translate(-177.32 471.65) rotate(-27.85)"/><path class="cls-6" d="M865.48,583.55l6.81,12.89-12.89,6.81-6.81-12.89,12.89-6.81m.31-1-14.19,7.5,7.5,14.19,14.19-7.5-7.5-14.19Z"/><rect class="cls-5" x="868.98" y="578.24" width="15.31" height="15.31" transform="translate(-172.18 477.47) rotate(-27.85)"/><path class="cls-6" d="M879.68,576.05l6.81,12.89-12.89,6.81-6.81-12.89,12.89-6.81m.3-1-14.19,7.5,7.5,14.19,14.19-7.49-7.5-14.2Z"/><rect class="cls-5" x="883.17" y="570.74" width="15.31" height="15.31" transform="translate(-167.03 483.2) rotate(-27.85)"/><path class="cls-6" d="M893.87,568.55l6.81,12.89-12.89,6.81L881,575.36l12.89-6.81m.31-1-14.2,7.5,7.5,14.2,14.2-7.5-7.5-14.2Z"/><rect class="cls-5" x="897.37" y="563.24" width="15.31" height="15.31" transform="translate(-161.88 488.93) rotate(-27.85)"/><path class="cls-6" d="M908.06,561.05l6.81,12.89L902,580.75l-6.81-12.89,12.89-6.81m.31-1-14.19,7.5,7.5,14.2,14.19-7.5-7.5-14.2Z"/><rect class="cls-5" x="911.56" y="555.74" width="15.31" height="15.31" transform="translate(-156.73 494.76) rotate(-27.85)"/><path class="cls-6" d="M922.25,553.55l6.81,12.89-12.88,6.81-6.81-12.89,12.88-6.81m.31-1-14.19,7.5,7.5,14.2,14.19-7.5-7.5-14.2Z"/><rect class="cls-5" x="925.75" y="548.24" width="15.31" height="15.31" transform="translate(-151.58 500.46) rotate(-27.85)"/><path class="cls-6" d="M936.45,546.05l6.81,12.89-12.89,6.81-6.81-12.89,12.89-6.81m.31-1-14.2,7.5,7.5,14.2,14.2-7.5-7.5-14.2Z"/><rect class="cls-5" x="777.13" y="644.93" width="15.31" height="15.31" transform="translate(-213.99 442.31) rotate(-27.86)"/><path class="cls-6" d="M787.82,642.74l6.81,12.89-12.89,6.81-6.81-12.89,12.89-6.81m.31-1-14.19,7.5,7.5,14.19,14.19-7.5-7.5-14.19Z"/><rect class="cls-5" x="805.51" y="629.93" width="15.31" height="15.31" transform="translate(-203.68 453.81) rotate(-27.85)"/><path class="cls-6" d="M816.21,627.74,823,640.63l-12.89,6.81-6.81-12.89,12.89-6.81m.31-1-14.2,7.5,7.5,14.2,14.2-7.5-7.5-14.2Z"/><rect class="cls-5" x="833.9" y="614.93" width="15.31" height="15.31" transform="translate(-193.39 465.33) rotate(-27.85)"/><path class="cls-6" d="M844.6,612.74l6.81,12.89-12.89,6.81-6.81-12.89,12.89-6.81m.3-1-14.19,7.5,7.5,14.2,14.19-7.5-7.5-14.2Z"/><rect class="cls-5" x="862.29" y="599.93" width="15.31" height="15.31" transform="translate(-183.08 476.8) rotate(-27.85)"/><path class="cls-6" d="M873,597.74l6.81,12.89-12.89,6.81-6.81-12.89L873,597.74m.31-1-14.19,7.5,7.5,14.2,14.19-7.5-7.5-14.2Z"/><rect class="cls-5" x="890.67" y="584.94" width="15.31" height="15.31" transform="translate(-172.79 488.32) rotate(-27.85)"/><path class="cls-6" d="M901.37,582.74l6.81,12.89-12.89,6.81-6.81-12.89,12.89-6.81m.31-1-14.2,7.5,7.5,14.19,14.2-7.5-7.5-14.19Z"/><rect class="cls-5" x="919.06" y="569.94" width="15.31" height="15.31" transform="translate(-162.49 499.88) rotate(-27.85)"/><path class="cls-6" d="M929.75,567.74l6.81,12.89-12.88,6.81-6.81-12.89,12.88-6.81m.31-1-14.19,7.5,7.5,14.19,14.19-7.5-7.5-14.19Z"/><rect class="cls-5" x="770.43" y="666.62" width="15.31" height="15.31" transform="translate(-224.89 441.67) rotate(-27.85)"/><path class="cls-6" d="M781.13,664.43l6.81,12.89-12.89,6.81-6.81-12.89,12.89-6.81m.31-1-14.2,7.5,7.5,14.2,14.2-7.5-7.5-14.2Z"/><rect class="cls-5" x="784.63" y="659.12" width="15.31" height="15.31" transform="translate(-219.73 447.37) rotate(-27.85)"/><path class="cls-6" d="M795.32,656.93l6.81,12.89-12.89,6.81-6.81-12.89,12.89-6.81m.31-1-14.19,7.5,7.5,14.2,14.19-7.5-7.5-14.2Z"/><rect class="cls-5" x="798.82" y="651.62" width="15.31" height="15.31" transform="translate(-214.58 453.13) rotate(-27.85)"/><path class="cls-6" d="M809.52,649.43l6.8,12.89-12.88,6.81-6.81-12.89,12.89-6.81m.3-1-14.19,7.49,7.5,14.2,14.19-7.5-7.5-14.19Z"/><rect class="cls-5" x="813.01" y="644.13" width="15.31" height="15.31" transform="translate(-209.45 458.98) rotate(-27.86)"/><path class="cls-6" d="M823.71,641.93l6.81,12.89-12.89,6.81-6.81-12.89,12.89-6.81m.31-1-14.2,7.5,7.5,14.19,14.2-7.5L824,640.94Z"/><rect class="cls-5" x="827.21" y="636.63" width="15.31" height="15.31" transform="translate(-204.29 464.66) rotate(-27.85)"/><path class="cls-6" d="M837.9,634.43l6.81,12.89-12.89,6.81L825,641.24l12.89-6.81m.31-1L824,640.94l7.5,14.19,14.19-7.5-7.5-14.19Z"/><rect class="cls-5" x="841.4" y="629.13" width="15.31" height="15.31" transform="translate(-199.15 470.48) rotate(-27.85)"/><path class="cls-6" d="M852.09,626.93l6.81,12.89L846,646.63l-6.81-12.89,12.88-6.81m.31-1-14.19,7.5,7.5,14.19,14.19-7.5-7.5-14.19Z"/><rect class="cls-5" x="869.78" y="614.13" width="15.31" height="15.31" transform="translate(-188.85 482) rotate(-27.85)"/><path class="cls-6" d="M880.48,611.94l6.81,12.88-12.89,6.81-6.81-12.88,12.89-6.81m.31-1-14.19,7.5,7.49,14.19,14.2-7.5-7.5-14.19Z"/><rect class="cls-5" x="883.98" y="606.63" width="15.31" height="15.31" transform="translate(-183.7 487.74) rotate(-27.85)"/><path class="cls-6" d="M894.67,604.44l6.81,12.88-12.88,6.81-6.81-12.88,12.88-6.81m.31-1-14.19,7.5,7.5,14.19,14.19-7.5L895,603.44Z"/><rect class="cls-5" x="898.17" y="599.13" width="15.31" height="15.31" transform="translate(-178.55 493.47) rotate(-27.85)"/><path class="cls-6" d="M908.87,596.94l6.81,12.88-12.89,6.81L896,603.75l12.89-6.81m.31-1-14.2,7.5,7.5,14.19,14.19-7.5-7.49-14.19Z"/><rect class="cls-5" x="912.36" y="591.63" width="15.31" height="15.31" transform="translate(-173.41 499.29) rotate(-27.85)"/><path class="cls-6" d="M923.06,589.44l6.81,12.89L917,609.14l-6.81-12.89,12.89-6.81m.31-1-14.19,7.5,7.49,14.19,14.2-7.5-7.5-14.19Z"/><rect class="cls-5" x="926.56" y="584.13" width="15.31" height="15.31" transform="translate(-168.25 504.99) rotate(-27.85)"/><path class="cls-6" d="M937.25,581.94l6.81,12.89-12.88,6.81-6.81-12.89,12.88-6.81m.31-1-14.19,7.5,7.5,14.19,14.19-7.5-7.5-14.19Z"/><rect class="cls-5" x="940.75" y="576.63" width="15.31" height="15.31" transform="translate(-163.11 510.82) rotate(-27.85)"/><path class="cls-6" d="M951.45,574.44l6.81,12.89-12.89,6.81-6.81-12.89,12.89-6.81m.3-1-14.19,7.5,7.5,14.19,14.19-7.5-7.5-14.19Z"/><rect class="cls-6" x="530.15" y="47.59" width="109.33" height="295.67" transform="translate(685.24 803.8) rotate(-117.85)"/><line class="cls-7" x1="189.32" y1="588.15" x2="371.95" y2="491.66"/><line class="cls-7" x1="198.18" y1="604.92" x2="380.81" y2="508.43"/><line class="cls-7" x1="207.04" y1="621.69" x2="389.66" y2="525.19"/><line class="cls-7" x1="215.9" y1="638.45" x2="398.52" y2="541.96"/><line class="cls-7" x1="224.76" y1="655.22" x2="407.38" y2="558.73"/><line class="cls-7" x1="233.62" y1="671.99" x2="416.24" y2="575.49"/><line class="cls-7" x1="242.48" y1="688.75" x2="425.1" y2="592.26"/><line class="cls-7" x1="251.34" y1="705.52" x2="433.96" y2="609.02"/><line class="cls-7" x1="260.2" y1="722.29" x2="351.47" y2="674.06"/><line class="cls-7" x1="277.92" y1="755.82" x2="460.54" y2="659.32"/><line class="cls-7" x1="286.77" y1="772.58" x2="469.4" y2="676.09"/><line class="cls-7" x1="295.63" y1="789.35" x2="478.26" y2="692.86"/><line class="cls-7" x1="304.49" y1="806.12" x2="487.11" y2="709.62"/><line class="cls-7" x1="313.35" y1="822.88" x2="495.97" y2="726.39"/><line class="cls-7" x1="322.21" y1="839.65" x2="504.83" y2="743.16"/><line class="cls-7" x1="331.07" y1="856.42" x2="513.69" y2="759.92"/><line class="cls-7" x1="339.93" y1="873.18" x2="522.55" y2="776.69"/><line class="cls-7" x1="348.79" y1="889.95" x2="531.41" y2="793.46"/><line class="cls-7" x1="357.65" y1="906.72" x2="448.92" y2="858.49"/><line class="cls-7" x1="398.12" y1="477.83" x2="580.74" y2="381.34"/><line class="cls-7" x1="406.98" y1="494.6" x2="589.6" y2="398.1"/><line class="cls-7" x1="415.84" y1="511.36" x2="598.46" y2="414.87"/><line class="cls-7" x1="424.7" y1="528.13" x2="489.87" y2="493.7"/><line class="cls-7" x1="433.56" y1="544.9" x2="616.18" y2="448.41"/><line class="cls-7" x1="442.42" y1="561.67" x2="625.04" y2="465.17"/><line class="cls-7" x1="451.28" y1="578.43" x2="633.9" y2="481.94"/><line class="cls-7" x1="460.14" y1="595.2" x2="642.76" y2="498.71"/><line class="cls-7" x1="469" y1="611.97" x2="651.62" y2="515.47"/><line class="cls-7" x1="477.86" y1="628.73" x2="582.18" y2="573.61"/><line class="cls-7" x1="589.2" y1="333.97" x2="771.82" y2="237.48"/><line class="cls-7" x1="597.55" y1="349.78" x2="780.17" y2="253.28"/><line class="cls-7" x1="605.9" y1="365.58" x2="788.52" y2="269.09"/><line class="cls-7" x1="614.25" y1="381.39" x2="796.87" y2="284.89"/><line class="cls-7" x1="622.6" y1="397.19" x2="805.22" y2="300.7"/><line class="cls-7" x1="630.95" y1="413" x2="813.57" y2="316.5"/><line class="cls-7" x1="639.3" y1="428.8" x2="821.93" y2="332.31"/><line class="cls-7" x1="647.66" y1="444.61" x2="830.28" y2="348.11"/><line class="cls-7" x1="656.01" y1="460.41" x2="838.63" y2="363.92"/><line class="cls-7" x1="664.36" y1="476.21" x2="768.68" y2="421.09"/><rect class="cls-6" x="125.31" y="408.42" width="442.7" height="7.38" transform="translate(-152.37 209.69) rotate(-27.85)"/><rect class="cls-6" x="479.53" y="598.92" width="206.55" height="14.76" transform="translate(-215.74 342.51) rotate(-27.85)"/><line class="cls-7" x1="504.52" y1="679.19" x2="584.58" y2="636.89"/><line class="cls-7" x1="513.35" y1="695.91" x2="593.42" y2="653.61"/><line class="cls-7" x1="522.19" y1="712.64" x2="602.25" y2="670.33"/><line class="cls-7" x1="531.02" y1="729.36" x2="611.09" y2="687.05"/><line class="cls-7" x1="539.86" y1="746.08" x2="619.92" y2="703.78"/><line class="cls-7" x1="548.7" y1="762.8" x2="628.76" y2="720.5"/><line class="cls-7" x1="557.53" y1="779.52" x2="637.59" y2="737.22"/><line class="cls-7" x1="566.37" y1="796.25" x2="646.43" y2="753.94"/><rect class="cls-6" x="560.04" y="241.54" width="208.68" height="22.76" transform="translate(-41.2 339.68) rotate(-27.85)"/><path class="cls-6" d="M198.43,448.43,180.37,458,124,423.57l26.51,50.18-16.93,8.94L92.69,405.26l18.07-9.55,56.4,34.52L140.59,380,157.52,371Z"/><path class="cls-6" d="M261,415.38l-48.1,25.42L172,363.37,220.08,338l7.64,14.45-31.18,16.48,9,17,22.92-12.11,7.64,14.45-22.92,12.11,9,17.09,31.17-16.48Z"/><path class="cls-6" d="M338.29,275.49l18.19,89.43-18.73,9.9-39.57-42L311,389l-18.74,9.9L228,333.78,246.4,324l42.13,43L273.92,309.5l18.42-9.73,40,42.27L320.38,285Z"/><path class="cls-6" d="M424.92,299.84A25.1,25.1,0,0,1,428,311.56a27.42,27.42,0,0,1-2.26,11.1,32.1,32.1,0,0,1-6.46,9.59,37.44,37.44,0,0,1-9.44,7.1,34.35,34.35,0,0,1-9.51,3.34,29.65,29.65,0,0,1-10.21.21,31.69,31.69,0,0,1-10.28-3.51,35.84,35.84,0,0,1-9.65-7.82L384,320.92a16.64,16.64,0,0,0,4.56,3.46,14.51,14.51,0,0,0,4.71,1.48,14.19,14.19,0,0,0,4.56-.17,15.44,15.44,0,0,0,4.2-1.49,16.15,16.15,0,0,0,4.54-3.42,13.78,13.78,0,0,0,2.58-4,9.78,9.78,0,0,0,.73-4.18,9,9,0,0,0-1-3.79,8.65,8.65,0,0,0-4.22-3.85,11.79,11.79,0,0,0-7.19-.49l-13.34,2.62a29.54,29.54,0,0,1-9.67.39,27.13,27.13,0,0,1-8.25-2.44,24.44,24.44,0,0,1-6.59-4.67,26.28,26.28,0,0,1-4.72-6.36,26.62,26.62,0,0,1-2.89-9.43,25.07,25.07,0,0,1,.85-10,26.54,26.54,0,0,1,5.12-9.44,33.27,33.27,0,0,1,19-10.89,28.14,28.14,0,0,1,9.9,0,29.55,29.55,0,0,1,9.91,3.75,34.9,34.9,0,0,1,9.18,8.12l-14.22,10a16.94,16.94,0,0,0-4.15-3.36,13.45,13.45,0,0,0-4.25-1.52,12.08,12.08,0,0,0-4.07,0,12.78,12.78,0,0,0-3.65,1.24,11.23,11.23,0,0,0-3.47,2.69,9.86,9.86,0,0,0-1.85,3.22,8,8,0,0,0-.4,3.38,8.44,8.44,0,0,0,1,3.19,9.09,9.09,0,0,0,3.93,3.8,9.9,9.9,0,0,0,6.44.82l14.7-2.28a34.44,34.44,0,0,1,9.62-.23,28,28,0,0,1,8.19,2.24,23.14,23.14,0,0,1,6.52,4.41A24.68,24.68,0,0,1,424.92,299.84Z"/><rect class="cls-8" x="634.8" y="590.72" width="88.56" height="143.02" transform="translate(-230.72 393.96) rotate(-27.85)"/><rect class="cls-6" x="145.99" y="447.57" width="442.7" height="7.38" transform="translate(-168.27 223.88) rotate(-27.85)"/><g class="cls-9"><rect class="cls-10" x="163.02" y="180" width="724.04" height="632.01" transform="translate(-170.9 302.74) rotate(-27.85)"/><rect x="713.91" y="439.78" width="208.68" height="208.68" transform="translate(-159.42 445.3) rotate(-27.85)"/><rect class="cls-10" x="680.44" y="496.31" width="15.31" height="15.31" transform="translate(-155.73 379.84) rotate(-27.85)"/><path class="cls-6" d="M691.14,494.11,698,507l-12.89,6.81-6.81-12.89,12.89-6.81m.3-1-14.19,7.5,7.5,14.19,14.19-7.5-7.5-14.19Z"/><rect class="cls-10" x="694.63" y="488.81" width="15.31" height="15.31" transform="translate(-150.59 385.65) rotate(-27.85)"/><path class="cls-6" d="M705.33,486.61l6.81,12.89-12.89,6.81-6.81-12.89,12.89-6.81m.31-1-14.2,7.5,7.5,14.19,14.2-7.5-7.5-14.19Z"/><rect class="cls-10" x="708.83" y="481.31" width="15.31" height="15.31" transform="translate(-145.44 391.36) rotate(-27.85)"/><path class="cls-6" d="M719.52,479.11,726.33,492l-12.89,6.81-6.81-12.89,12.89-6.81m.31-1-14.19,7.5,7.5,14.19,14.19-7.5-7.5-14.19Z"/><rect class="cls-10" x="723.02" y="473.81" width="15.31" height="15.31" transform="translate(-140.3 397.2) rotate(-27.86)"/><path class="cls-6" d="M733.72,471.61l6.81,12.89-12.89,6.81-6.81-12.89,12.89-6.81m.3-1-14.19,7.5,7.5,14.19,14.19-7.5L734,470.62Z"/><rect class="cls-10" x="737.21" y="466.31" width="15.31" height="15.31" transform="translate(-135.14 402.89) rotate(-27.85)"/><path class="cls-6" d="M747.91,464.12,754.72,477l-12.89,6.81L735,470.93l12.89-6.81m.31-1-14.2,7.5,7.5,14.19,14.2-7.5-7.5-14.19Z"/><rect class="cls-10" x="751.41" y="458.81" width="15.31" height="15.31" transform="translate(-129.99 408.65) rotate(-27.85)"/><path class="cls-6" d="M762.1,456.62l6.81,12.88L756,476.31l-6.81-12.88,12.89-6.81m.31-1-14.19,7.5,7.5,14.19,14.19-7.5-7.5-14.19Z"/><rect class="cls-10" x="779.79" y="443.81" width="15.31" height="15.31" transform="translate(-119.7 420.17) rotate(-27.85)"/><path class="cls-6" d="M790.49,441.62l6.81,12.89-12.89,6.81-6.81-12.89,12.89-6.81m.31-1-14.2,7.5,7.5,14.19,14.2-7.5-7.5-14.19Z"/><rect class="cls-10" x="793.98" y="436.31" width="15.31" height="15.31" transform="translate(-114.55 425.99) rotate(-27.85)"/><path class="cls-6" d="M804.68,434.12,811.49,447l-12.89,6.81-6.81-12.89,12.89-6.81m.31-1-14.19,7.5,7.5,14.19,14.19-7.5L805,433.12Z"/><rect class="cls-10" x="808.18" y="428.81" width="15.31" height="15.31" transform="translate(-109.4 431.72) rotate(-27.85)"/><path class="cls-6" d="M818.87,426.62l6.81,12.89-12.88,6.81L806,433.43l12.88-6.81m.31-1L805,433.12l7.5,14.19,14.19-7.5-7.5-14.19Z"/><rect class="cls-10" x="822.37" y="421.31" width="15.31" height="15.31" transform="translate(-104.26 437.46) rotate(-27.85)"/><path class="cls-6" d="M833.07,419.12,839.88,432,827,438.82l-6.81-12.89,12.89-6.81m.31-1-14.2,7.5,7.5,14.19,14.19-7.5-7.49-14.19Z"/><rect class="cls-10" x="836.56" y="413.81" width="15.31" height="15.31" transform="translate(-99.11 443.27) rotate(-27.85)"/><path class="cls-6" d="M847.26,411.62l6.81,12.89-12.89,6.81-6.81-12.89,12.89-6.81m.31-1-14.19,7.5,7.49,14.19,14.2-7.49-7.5-14.2Z"/><rect class="cls-10" x="850.76" y="406.31" width="15.31" height="15.31" transform="translate(-93.96 448.98) rotate(-27.85)"/><path class="cls-6" d="M861.45,404.12,868.26,417l-12.88,6.81-6.81-12.89,12.88-6.81m.31-1-14.19,7.5,7.5,14.2,14.19-7.5-7.5-14.2Z"/><rect class="cls-10" x="702.13" y="503" width="15.31" height="15.31" transform="translate(-156.35 390.75) rotate(-27.85)"/><path class="cls-6" d="M712.83,500.81l6.81,12.89-12.89,6.8-6.81-12.88,12.89-6.81m.31-1-14.2,7.5,7.5,14.19,14.2-7.5-7.5-14.19Z"/><rect class="cls-10" x="730.52" y="488" width="15.31" height="15.31" transform="translate(-146.06 402.32) rotate(-27.85)"/><path class="cls-6" d="M741.21,485.81,748,498.7l-12.88,6.81-6.81-12.89,12.88-6.81m.31-1-14.19,7.5,7.5,14.19L749,499l-7.5-14.19Z"/><rect class="cls-10" x="758.9" y="473" width="15.31" height="15.31" transform="translate(-135.76 413.85) rotate(-27.85)"/><path class="cls-6" d="M769.6,470.81l6.81,12.89-12.89,6.81-6.81-12.89,12.89-6.81m.31-1-14.19,7.5,7.49,14.19,14.2-7.49-7.5-14.2Z"/><rect class="cls-10" x="787.29" y="458" width="15.31" height="15.31" transform="translate(-125.46 425.32) rotate(-27.85)"/><path class="cls-6" d="M798,455.81l6.81,12.89-12.89,6.81-6.81-12.89L798,455.81m.31-1-14.2,7.5,7.5,14.2,14.19-7.5-7.49-14.2Z"/><rect class="cls-10" x="815.68" y="443" width="15.31" height="15.31" transform="translate(-115.17 436.84) rotate(-27.85)"/><path class="cls-6" d="M826.37,440.81l6.81,12.89-12.88,6.81-6.81-12.89,12.88-6.81m.31-1-14.19,7.5,7.5,14.2,14.19-7.5-7.5-14.2Z"/><rect class="cls-10" x="844.06" y="428" width="15.31" height="15.31" transform="translate(-104.87 448.4) rotate(-27.85)"/><path class="cls-6" d="M854.76,425.81l6.81,12.89-12.89,6.81-6.81-12.89,12.89-6.81m.31-1-14.2,7.49,7.5,14.2,14.2-7.5-7.5-14.19Z"/><rect class="cls-10" x="695.44" y="524.69" width="15.31" height="15.31" transform="translate(-167.26 390.18) rotate(-27.85)"/><path class="cls-6" d="M706.13,522.5l6.81,12.89-12.88,6.81-6.81-12.89,12.88-6.81m.31-1L692.25,529l7.5,14.19,14.19-7.49-7.5-14.2Z"/><rect class="cls-10" x="709.63" y="517.19" width="15.31" height="15.31" transform="translate(-162.11 395.9) rotate(-27.85)"/><path class="cls-6" d="M720.33,515l6.81,12.89-12.89,6.81-6.81-12.89L720.33,515m.31-1-14.2,7.5,7.5,14.2,14.19-7.5L720.64,514Z"/><rect class="cls-10" x="723.82" y="509.69" width="15.31" height="15.31" transform="translate(-156.97 401.73) rotate(-27.86)"/><path class="cls-6" d="M734.52,507.5l6.81,12.89-12.89,6.81-6.81-12.89,12.89-6.81m.31-1L720.64,514l7.49,14.2,14.2-7.5-7.5-14.2Z"/><rect class="cls-10" x="738.02" y="502.19" width="15.31" height="15.31" transform="translate(-151.81 407.42) rotate(-27.85)"/><path class="cls-6" d="M748.71,500l6.81,12.89-12.88,6.81-6.81-12.89L748.71,500m.31-1-14.19,7.5,7.5,14.2,14.19-7.5L749,499Z"/><rect class="cls-10" x="752.21" y="494.69" width="15.31" height="15.31" transform="translate(-146.67 413.18) rotate(-27.85)"/><path class="cls-6" d="M762.91,492.5l6.81,12.89-12.89,6.81L750,499.31l12.89-6.81m.3-1L749,499l7.5,14.2,14.19-7.5-7.5-14.2Z"/><rect class="cls-10" x="766.4" y="487.19" width="15.31" height="15.31" transform="translate(-141.52 419) rotate(-27.85)"/><path class="cls-6" d="M777.1,485l6.81,12.89L771,504.7l-6.81-12.89L777.1,485m.31-1-14.2,7.49,7.5,14.2,14.2-7.5L777.41,484Z"/><rect class="cls-10" x="780.6" y="479.7" width="15.31" height="15.31" transform="translate(-136.37 424.71) rotate(-27.85)"/><path class="cls-6" d="M791.29,477.5l6.81,12.89-12.88,6.81-6.81-12.89,12.88-6.81m.31-1L777.41,484l7.5,14.19,14.19-7.5-7.5-14.19Z"/><rect class="cls-10" x="794.79" y="472.2" width="15.31" height="15.31" transform="translate(-131.23 430.52) rotate(-27.85)"/><path class="cls-6" d="M805.49,470l6.81,12.89-12.89,6.81-6.81-12.89L805.49,470m.3-1-14.19,7.5,7.5,14.19,14.19-7.5L805.79,469Z"/><rect class="cls-10" x="808.98" y="464.7" width="15.31" height="15.31" transform="translate(-126.08 436.26) rotate(-27.85)"/><path class="cls-6" d="M819.68,462.5l6.81,12.89L813.6,482.2l-6.81-12.89,12.89-6.81m.31-1-14.2,7.5,7.5,14.19,14.2-7.5L820,461.51Z"/><rect class="cls-10" x="823.18" y="457.2" width="15.31" height="15.31" transform="translate(-120.93 441.99) rotate(-27.85)"/><path class="cls-6" d="M833.87,455l6.81,12.89-12.89,6.81L821,461.81,833.87,455m.31-1L820,461.51l7.5,14.19,14.19-7.5L834.18,454Z"/><rect class="cls-10" x="837.37" y="449.7" width="15.31" height="15.31" transform="translate(-115.78 447.81) rotate(-27.85)"/><path class="cls-6" d="M848.07,447.51l6.81,12.88L842,467.2l-6.81-12.89,12.89-6.8m.3-1L834.18,454l7.5,14.19,14.19-7.5-7.5-14.19Z"/><rect class="cls-10" x="851.56" y="442.2" width="15.31" height="15.31" transform="translate(-110.63 453.52) rotate(-27.85)"/><path class="cls-6" d="M862.26,440l6.81,12.88-12.89,6.81-6.81-12.88L862.26,440m.31-1-14.2,7.5,7.5,14.19,14.2-7.5L862.57,439Z"/><rect class="cls-10" x="865.76" y="434.7" width="15.31" height="15.31" transform="translate(-105.48 459.33) rotate(-27.85)"/><path class="cls-6" d="M876.45,432.51l6.81,12.88-12.89,6.81-6.81-12.88,12.89-6.81m.31-1L862.57,439l7.5,14.19,14.19-7.5-7.5-14.19Z"/><rect class="cls-10" x="717.13" y="531.39" width="15.31" height="15.31" transform="translate(-167.87 401.04) rotate(-27.85)"/><path class="cls-6" d="M727.83,529.19l6.81,12.89-12.89,6.81L714.94,536l12.89-6.81m.3-1-14.19,7.5,7.5,14.19,14.19-7.5-7.5-14.19Z"/><rect class="cls-10" x="745.52" y="516.39" width="15.31" height="15.31" transform="translate(-157.58 412.57) rotate(-27.85)"/><path class="cls-6" d="M756.21,514.19,763,527.08l-12.88,6.81L743.33,521l12.88-6.81m.31-1-14.19,7.5,7.5,14.19,14.19-7.5-7.5-14.19Z"/><rect class="cls-10" x="802.29" y="486.39" width="15.31" height="15.31" transform="translate(-136.99 435.67) rotate(-27.85)"/><path class="cls-6" d="M813,484.2l6.81,12.88-12.89,6.81L800.1,491,813,484.2m.3-1-14.19,7.5,7.5,14.19,14.19-7.5-7.5-14.19Z"/><rect class="cls-10" x="830.68" y="471.39" width="15.31" height="15.31" transform="translate(-126.69 447.19) rotate(-27.85)"/><path class="cls-6" d="M841.37,469.2l6.81,12.89-12.89,6.81L828.48,476l12.89-6.81m.31-1-14.19,7.5,7.5,14.19,14.19-7.5-7.5-14.19Z"/><rect class="cls-10" x="859.06" y="456.39" width="15.31" height="15.31" transform="translate(-116.4 458.66) rotate(-27.85)"/><path class="cls-6" d="M869.76,454.2l6.81,12.89-12.89,6.81L856.87,461l12.89-6.81m.31-1-14.2,7.5,7.5,14.19,14.2-7.5-7.5-14.19Z"/><rect class="cls-10" x="710.44" y="553.08" width="15.31" height="15.31" transform="translate(-178.78 400.43) rotate(-27.85)"/><path class="cls-6" d="M721.13,550.89l6.81,12.88-12.89,6.81-6.8-12.88,12.88-6.81m.31-1-14.19,7.5,7.5,14.19,14.19-7.5-7.5-14.19Z"/><rect class="cls-10" x="724.63" y="545.58" width="15.31" height="15.31" transform="translate(-173.65 406.27) rotate(-27.86)"/><path class="cls-6" d="M735.33,543.39l6.81,12.88-12.89,6.81-6.81-12.88,12.89-6.81m.3-1-14.19,7.5,7.5,14.19,14.19-7.5-7.5-14.19Z"/><rect class="cls-10" x="738.82" y="538.08" width="15.31" height="15.31" transform="translate(-168.49 411.95) rotate(-27.85)"/><path class="cls-6" d="M749.52,535.89l6.81,12.89-12.89,6.8-6.81-12.88,12.89-6.81m.31-1-14.2,7.5,7.5,14.19,14.2-7.5-7.5-14.19Z"/><rect class="cls-10" x="753.02" y="530.58" width="15.31" height="15.31" transform="translate(-163.34 417.72) rotate(-27.85)"/><path class="cls-6" d="M763.71,528.39l6.81,12.89-12.89,6.81-6.81-12.89,12.89-6.81m.31-1-14.19,7.5,7.5,14.19,14.19-7.5L764,527.39Z"/><rect class="cls-10" x="781.4" y="515.58" width="15.31" height="15.31" transform="translate(-153.04 429.24) rotate(-27.85)"/><path class="cls-6" d="M792.1,513.39l6.81,12.89L786,533.09l-6.81-12.89,12.89-6.81m.31-1-14.2,7.5,7.5,14.19,14.2-7.5-7.5-14.19Z"/><rect class="cls-10" x="795.6" y="508.08" width="15.31" height="15.31" transform="translate(-147.9 435.05) rotate(-27.85)"/><path class="cls-6" d="M806.29,505.89l6.81,12.89-12.89,6.81L793.4,512.7l12.89-6.81m.31-1-14.19,7.5,7.5,14.19,14.19-7.49-7.5-14.2Z"/><rect class="cls-10" x="809.79" y="500.58" width="15.31" height="15.31" transform="translate(-142.75 440.79) rotate(-27.85)"/><path class="cls-6" d="M820.49,498.39l6.81,12.89-12.89,6.81L807.6,505.2l12.89-6.81m.3-1-14.19,7.5,7.5,14.2,14.19-7.5-7.5-14.2Z"/><rect class="cls-10" x="823.98" y="493.08" width="15.31" height="15.31" transform="translate(-137.6 446.53) rotate(-27.85)"/><path class="cls-6" d="M834.68,490.89l6.81,12.89-12.89,6.81-6.81-12.89,12.89-6.81m.31-1-14.2,7.5,7.5,14.2,14.2-7.5-7.5-14.2Z"/><rect class="cls-10" x="838.18" y="485.58" width="15.31" height="15.31" transform="translate(-132.45 452.34) rotate(-27.85)"/><path class="cls-6" d="M848.87,483.39l6.81,12.89-12.89,6.81L836,490.2l12.89-6.81m.31-1L835,489.89l7.5,14.2,14.19-7.5-7.5-14.2Z"/><rect class="cls-10" x="852.37" y="478.08" width="15.31" height="15.31" transform="translate(-127.3 458.05) rotate(-27.85)"/><path class="cls-6" d="M863.07,475.89l6.81,12.89L857,495.59l-6.81-12.89,12.89-6.81m.3-1-14.19,7.5,7.5,14.2,14.19-7.5-7.5-14.2Z"/><rect class="cls-10" x="866.56" y="470.58" width="15.31" height="15.31" transform="translate(-122.16 463.87) rotate(-27.85)"/><path class="cls-6" d="M877.26,468.39l6.81,12.89-12.89,6.81-6.81-12.89,12.89-6.81m.31-1-14.2,7.5,7.5,14.2,14.2-7.5-7.5-14.2Z"/><rect class="cls-10" x="880.76" y="463.08" width="15.31" height="15.31" transform="translate(-117.01 469.6) rotate(-27.85)"/><path class="cls-6" d="M891.45,460.89l6.81,12.89-12.89,6.81-6.81-12.89,12.89-6.81m.31-1-14.19,7.49,7.5,14.2,14.19-7.5-7.5-14.19Z"/><rect class="cls-10" x="760.52" y="544.77" width="15.31" height="15.31" transform="translate(-169.11 422.92) rotate(-27.85)"/><path class="cls-6" d="M771.21,542.58,778,555.47l-12.89,6.81-6.81-12.89,12.89-6.81m.31-1-14.19,7.5,7.5,14.2,14.19-7.5-7.5-14.2Z"/><rect class="cls-10" x="788.9" y="529.77" width="15.31" height="15.31" transform="translate(-158.8 434.39) rotate(-27.85)"/><path class="cls-6" d="M799.6,527.58l6.81,12.89-12.89,6.81-6.81-12.89,12.89-6.81m.31-1-14.2,7.5,7.5,14.2,14.2-7.5-7.5-14.2Z"/><rect class="cls-10" x="817.29" y="514.78" width="15.31" height="15.31" transform="translate(-148.51 445.91) rotate(-27.85)"/><path class="cls-6" d="M828,512.58l6.8,12.89-12.88,6.81-6.81-12.89L828,512.58m.3-1-14.19,7.5,7.5,14.19,14.19-7.5-7.5-14.19Z"/><rect class="cls-10" x="874.06" y="484.78" width="15.31" height="15.31" transform="translate(-127.92 469.02) rotate(-27.85)"/><path class="cls-6" d="M884.76,482.59l6.81,12.88-12.89,6.81-6.81-12.88,12.89-6.81m.31-1-14.2,7.5,7.5,14.19,14.19-7.5-7.49-14.19Z"/><rect class="cls-10" x="725.44" y="581.46" width="15.31" height="15.31" transform="translate(-190.32 410.8) rotate(-27.86)"/><path class="cls-6" d="M736.13,579.27l6.81,12.89L730.05,599l-6.81-12.89,12.89-6.81m.31-1-14.19,7.5,7.5,14.2,14.19-7.5-7.5-14.2Z"/><rect class="cls-10" x="739.63" y="573.96" width="15.31" height="15.31" transform="translate(-185.16 416.49) rotate(-27.85)"/><path class="cls-6" d="M750.33,571.77l6.81,12.89-12.89,6.81-6.81-12.89,12.89-6.81m.3-1-14.19,7.49,7.5,14.2,14.19-7.5-7.5-14.19Z"/><rect class="cls-10" x="753.82" y="566.47" width="15.31" height="15.31" transform="translate(-180.01 422.25) rotate(-27.85)"/><path class="cls-6" d="M764.52,564.27l6.81,12.89L758.44,584l-6.81-12.89,12.89-6.81m.31-1-14.2,7.5,7.5,14.19,14.2-7.5-7.5-14.19Z"/><rect class="cls-10" x="768.02" y="558.97" width="15.31" height="15.31" transform="translate(-174.87 428.06) rotate(-27.85)"/><path class="cls-6" d="M778.71,556.77l6.81,12.89-12.89,6.81-6.81-12.89,12.89-6.81m.31-1-14.19,7.5,7.5,14.19,14.19-7.5L779,555.78Z"/><rect class="cls-10" x="782.21" y="551.47" width="15.31" height="15.31" transform="translate(-169.71 433.77) rotate(-27.85)"/><path class="cls-6" d="M792.91,549.27l6.8,12.89L786.83,569,780,556.08l12.89-6.81m.3-1L779,555.78l7.5,14.19,14.19-7.5-7.5-14.19Z"/><rect class="cls-10" x="796.4" y="543.97" width="15.31" height="15.31" transform="translate(-164.57 439.59) rotate(-27.85)"/><path class="cls-6" d="M807.1,541.78l6.81,12.88L801,561.47l-6.81-12.89,12.89-6.8m.31-1-14.2,7.5,7.5,14.19,14.2-7.5-7.5-14.19Z"/><rect class="cls-10" x="824.79" y="528.97" width="15.31" height="15.31" transform="translate(-154.27 451.06) rotate(-27.85)"/><path class="cls-6" d="M835.48,526.78l6.81,12.88-12.88,6.81-6.81-12.88,12.88-6.81m.31-1-14.19,7.5,7.5,14.19,14.19-7.5-7.5-14.19Z"/><rect class="cls-10" x="838.98" y="521.47" width="15.31" height="15.31" transform="translate(-149.13 456.88) rotate(-27.85)"/><path class="cls-6" d="M849.68,519.28l6.81,12.89L843.6,539l-6.81-12.88,12.89-6.81m.31-1-14.2,7.5,7.5,14.19,14.19-7.5L850,518.28Z"/><rect class="cls-10" x="853.17" y="513.97" width="15.31" height="15.31" transform="translate(-143.98 462.58) rotate(-27.85)"/><path class="cls-6" d="M863.87,511.78l6.81,12.89-12.89,6.81L851,518.59l12.89-6.81m.31-1L850,518.28l7.49,14.19,14.2-7.5-7.5-14.19Z"/><rect class="cls-10" x="867.37" y="506.47" width="15.31" height="15.31" transform="translate(-138.83 468.4) rotate(-27.85)"/><path class="cls-6" d="M878.06,504.28l6.81,12.89L872,524l-6.81-12.89,12.88-6.81m.31-1-14.19,7.5,7.5,14.19,14.19-7.5-7.5-14.19Z"/><rect class="cls-10" x="881.56" y="498.97" width="15.31" height="15.31" transform="translate(-133.68 474.14) rotate(-27.85)"/><path class="cls-6" d="M892.26,496.78l6.81,12.89-12.89,6.81-6.81-12.89,12.89-6.81m.3-1-14.19,7.5,7.5,14.19,14.19-7.5-7.5-14.19Z"/><rect class="cls-10" x="895.75" y="491.47" width="15.31" height="15.31" transform="translate(-128.53 479.87) rotate(-27.85)"/><path class="cls-6" d="M906.45,489.28l6.81,12.89L900.37,509l-6.81-12.89,12.89-6.81m.31-1-14.2,7.5,7.5,14.19,14.2-7.49-7.5-14.2Z"/><rect class="cls-10" x="747.13" y="588.16" width="15.31" height="15.31" transform="translate(-190.92 421.63) rotate(-27.85)"/><path class="cls-6" d="M757.82,586l6.81,12.88-12.88,6.81-6.81-12.88L757.82,586m.31-1-14.19,7.5,7.5,14.19,14.19-7.5L758.13,585Z"/><rect class="cls-10" x="803.9" y="558.16" width="15.31" height="15.31" transform="translate(-170.34 444.74) rotate(-27.85)"/><path class="cls-6" d="M814.6,556l6.81,12.89-12.89,6.81-6.81-12.89L814.6,556m.31-1-14.2,7.5,7.5,14.19,14.19-7.5L814.91,555Z"/><rect class="cls-10" x="832.29" y="543.16" width="15.31" height="15.31" transform="translate(-160.04 456.26) rotate(-27.85)"/><path class="cls-6" d="M843,541l6.81,12.89-12.88,6.81-6.81-12.89L843,541m.31-1-14.19,7.5,7.5,14.19,14.19-7.49-7.5-14.2Z"/><rect class="cls-10" x="860.67" y="528.16" width="15.31" height="15.31" transform="translate(-149.74 467.73) rotate(-27.85)"/><path class="cls-6" d="M871.37,526l6.81,12.89-12.89,6.81-6.81-12.89L871.37,526m.31-1-14.2,7.5,7.5,14.2,14.2-7.5-7.5-14.2Z"/><rect class="cls-10" x="740.43" y="609.85" width="15.31" height="15.31" transform="translate(-201.83 421.02) rotate(-27.85)"/><path class="cls-6" d="M751.13,607.66l6.81,12.89-12.89,6.81-6.81-12.89,12.89-6.81m.31-1-14.19,7.5,7.5,14.19,14.19-7.5-7.5-14.19Z"/><rect class="cls-10" x="754.63" y="602.35" width="15.31" height="15.31" transform="translate(-196.68 426.78) rotate(-27.85)"/><path class="cls-6" d="M765.32,600.16l6.81,12.89-12.88,6.81L752.44,607l12.88-6.81m.31-1-14.19,7.5,7.5,14.19,14.19-7.5-7.5-14.19Z"/><rect class="cls-10" x="768.82" y="594.85" width="15.31" height="15.31" transform="translate(-191.54 432.6) rotate(-27.85)"/><path class="cls-6" d="M779.52,592.66l6.81,12.89-12.89,6.81-6.81-12.89,12.89-6.81m.31-1-14.2,7.5,7.5,14.19,14.19-7.49-7.49-14.2Z"/><rect class="cls-10" x="783.01" y="587.35" width="15.31" height="15.31" transform="translate(-186.39 438.31) rotate(-27.85)"/><path class="cls-6" d="M793.71,585.16l6.81,12.89-12.89,6.81L780.82,592l12.89-6.81m.31-1-14.19,7.5,7.49,14.2,14.2-7.5-7.5-14.2Z"/><rect class="cls-10" x="797.21" y="579.85" width="15.31" height="15.31" transform="translate(-181.25 444.12) rotate(-27.85)"/><path class="cls-6" d="M807.9,577.66l6.81,12.89-12.88,6.81L795,584.47l12.88-6.81m.31-1L794,584.16l7.5,14.2,14.19-7.5-7.5-14.2Z"/><rect class="cls-10" x="811.4" y="572.35" width="15.31" height="15.31" transform="translate(-176.09 449.86) rotate(-27.85)"/><path class="cls-6" d="M822.1,570.16l6.81,12.89L816,589.86,809.21,577l12.89-6.81m.3-1-14.19,7.5,7.5,14.2,14.19-7.5-7.5-14.2Z"/><rect class="cls-10" x="825.59" y="564.85" width="15.31" height="15.31" transform="translate(-170.94 455.59) rotate(-27.85)"/><path class="cls-6" d="M836.29,562.66l6.81,12.89-12.89,6.81-6.81-12.89,12.89-6.81m.31-1-14.2,7.5,7.5,14.2,14.2-7.5-7.5-14.2Z"/><rect class="cls-10" x="839.79" y="557.35" width="15.31" height="15.31" transform="translate(-165.8 461.41) rotate(-27.85)"/><path class="cls-6" d="M850.48,555.16l6.81,12.89-12.89,6.81L837.6,562l12.88-6.81m.31-1-14.19,7.49,7.5,14.2,14.19-7.5-7.5-14.19Z"/><rect class="cls-10" x="868.17" y="542.36" width="15.31" height="15.31" transform="translate(-155.5 472.94) rotate(-27.85)"/><path class="cls-6" d="M878.87,540.16l6.81,12.89-12.89,6.81L866,547l12.89-6.81m.31-1-14.2,7.5,7.5,14.19,14.2-7.5-7.5-14.19Z"/><rect class="cls-10" x="882.37" y="534.86" width="15.31" height="15.31" transform="translate(-150.35 478.67) rotate(-27.85)"/><path class="cls-6" d="M893.06,532.66l6.81,12.89L887,552.36l-6.81-12.89,12.89-6.81m.31-1-14.19,7.5,7.5,14.19,14.19-7.5-7.5-14.19Z"/><rect class="cls-10" x="896.56" y="527.36" width="15.31" height="15.31" transform="translate(-145.21 484.4) rotate(-27.85)"/><path class="cls-6" d="M907.26,525.16l6.81,12.89-12.89,6.81L894.37,532l12.89-6.81m.3-1-14.19,7.5,7.5,14.19,14.19-7.5-7.5-14.19Z"/><rect class="cls-10" x="910.75" y="519.86" width="15.31" height="15.31" transform="translate(-140.06 490.22) rotate(-27.85)"/><path class="cls-6" d="M921.45,517.67l6.81,12.88-12.89,6.81-6.81-12.88,12.89-6.81m.31-1-14.2,7.5,7.5,14.19,14.2-7.5-7.5-14.19Z"/><rect class="cls-10" x="762.13" y="616.54" width="15.31" height="15.31" transform="translate(-202.45 431.98) rotate(-27.85)"/><path class="cls-6" d="M772.82,614.35l6.81,12.89-12.88,6.81-6.81-12.89,12.88-6.81m.31-1-14.19,7.5,7.5,14.2,14.19-7.5-7.5-14.2Z"/><rect class="cls-10" x="790.51" y="601.55" width="15.31" height="15.31" transform="translate(-192.15 443.45) rotate(-27.85)"/><path class="cls-6" d="M801.21,599.35,808,612.24l-12.89,6.81-6.81-12.89,12.89-6.81m.31-1-14.2,7.5,7.5,14.19,14.2-7.5-7.5-14.19Z"/><rect class="cls-10" x="818.9" y="586.55" width="15.31" height="15.31" transform="translate(-181.85 454.98) rotate(-27.85)"/><path class="cls-6" d="M829.6,584.35l6.81,12.89-12.89,6.81-6.81-12.89,12.89-6.81m.3-1-14.19,7.5,7.5,14.19,14.19-7.5-7.5-14.19Z"/><rect class="cls-10" x="875.67" y="556.55" width="15.31" height="15.31" transform="translate(-161.27 478.08) rotate(-27.85)"/><path class="cls-6" d="M886.37,554.36l6.81,12.89-12.89,6.8-6.81-12.88,12.89-6.81m.31-1-14.2,7.5,7.5,14.19,14.2-7.5-7.5-14.19Z"/><rect class="cls-10" x="904.06" y="541.55" width="15.31" height="15.31" transform="translate(-150.97 489.61) rotate(-27.85)"/><path class="cls-6" d="M914.76,539.36l6.81,12.89-12.89,6.81-6.81-12.89,12.89-6.81m.3-1-14.19,7.5,7.5,14.19,14.19-7.5-7.5-14.19Z"/><rect class="cls-10" x="755.43" y="638.24" width="15.31" height="15.31" transform="translate(-213.35 431.31) rotate(-27.85)"/><path class="cls-6" d="M766.13,636l6.81,12.89-12.89,6.81-6.81-12.89L766.13,636m.31-1-14.2,7.5,7.5,14.19,14.2-7.5-7.5-14.19Z"/><rect class="cls-10" x="769.63" y="630.74" width="15.31" height="15.31" transform="translate(-208.22 437.13) rotate(-27.85)"/><path class="cls-6" d="M780.32,628.55l6.81,12.88-12.89,6.81-6.81-12.88,12.89-6.81m.31-1-14.19,7.5,7.5,14.19,14.19-7.5-7.5-14.19Z"/><rect class="cls-10" x="783.82" y="623.24" width="15.31" height="15.31" transform="translate(-203.06 442.84) rotate(-27.85)"/><path class="cls-6" d="M794.52,621.05l6.81,12.88-12.89,6.81-6.81-12.88,12.89-6.81m.3-1-14.19,7.5,7.5,14.19,14.19-7.5-7.5-14.19Z"/><rect class="cls-10" x="798.01" y="615.74" width="15.31" height="15.31" transform="translate(-197.92 448.66) rotate(-27.85)"/><path class="cls-6" d="M808.71,613.55l6.81,12.88-12.89,6.81-6.81-12.88,12.89-6.81m.31-1-14.2,7.5,7.5,14.19,14.2-7.5L809,612.55Z"/><rect class="cls-10" x="812.21" y="608.24" width="15.31" height="15.31" transform="translate(-192.77 454.39) rotate(-27.85)"/><path class="cls-6" d="M822.9,606.05l6.81,12.89-12.89,6.81L810,612.86l12.89-6.81m.31-1L809,612.55l7.5,14.19,14.19-7.5-7.5-14.19Z"/><rect class="cls-10" x="826.4" y="600.74" width="15.31" height="15.31" transform="translate(-187.61 460.12) rotate(-27.85)"/><path class="cls-6" d="M837.1,598.55l6.81,12.89L831,618.25l-6.81-12.89,12.89-6.81m.3-1-14.19,7.5,7.5,14.19,14.19-7.5-7.5-14.19Z"/><rect class="cls-10" x="840.59" y="593.24" width="15.31" height="15.31" transform="translate(-182.47 465.94) rotate(-27.85)"/><path class="cls-6" d="M851.29,591.05l6.81,12.89-12.89,6.81-6.81-12.89,12.89-6.81m.31-1-14.2,7.5,7.5,14.19,14.2-7.5-7.5-14.19Z"/><rect class="cls-10" x="854.79" y="585.74" width="15.31" height="15.31" transform="translate(-177.32 471.65) rotate(-27.85)"/><path class="cls-6" d="M865.48,583.55l6.81,12.89-12.89,6.81-6.81-12.89,12.89-6.81m.31-1-14.19,7.5,7.5,14.19,14.19-7.5-7.5-14.19Z"/><rect class="cls-10" x="868.98" y="578.24" width="15.31" height="15.31" transform="translate(-172.18 477.47) rotate(-27.85)"/><path class="cls-6" d="M879.68,576.05l6.81,12.89-12.89,6.81-6.81-12.89,12.89-6.81m.3-1-14.19,7.5,7.5,14.19,14.19-7.49-7.5-14.2Z"/><rect class="cls-10" x="883.17" y="570.74" width="15.31" height="15.31" transform="translate(-167.03 483.2) rotate(-27.85)"/><path class="cls-6" d="M893.87,568.55l6.81,12.89-12.89,6.81L881,575.36l12.89-6.81m.31-1-14.2,7.5,7.5,14.2,14.2-7.5-7.5-14.2Z"/><rect class="cls-10" x="897.37" y="563.24" width="15.31" height="15.31" transform="translate(-161.88 488.93) rotate(-27.85)"/><path class="cls-6" d="M908.06,561.05l6.81,12.89L902,580.75l-6.81-12.89,12.89-6.81m.31-1-14.19,7.5,7.5,14.2,14.19-7.5-7.5-14.2Z"/><rect class="cls-10" x="911.56" y="555.74" width="15.31" height="15.31" transform="translate(-156.73 494.76) rotate(-27.85)"/><path class="cls-6" d="M922.25,553.55l6.81,12.89-12.88,6.81-6.81-12.89,12.88-6.81m.31-1-14.19,7.5,7.5,14.2,14.19-7.5-7.5-14.2Z"/><rect class="cls-10" x="925.75" y="548.24" width="15.31" height="15.31" transform="translate(-151.58 500.46) rotate(-27.85)"/><path class="cls-6" d="M936.45,546.05l6.81,12.89-12.89,6.81-6.81-12.89,12.89-6.81m.31-1-14.2,7.5,7.5,14.2,14.2-7.5-7.5-14.2Z"/><rect class="cls-10" x="777.13" y="644.93" width="15.31" height="15.31" transform="translate(-213.99 442.31) rotate(-27.86)"/><path class="cls-6" d="M787.82,642.74l6.81,12.89-12.89,6.81-6.81-12.89,12.89-6.81m.31-1-14.19,7.5,7.5,14.19,14.19-7.5-7.5-14.19Z"/><rect class="cls-10" x="805.51" y="629.93" width="15.31" height="15.31" transform="translate(-203.68 453.81) rotate(-27.85)"/><path class="cls-6" d="M816.21,627.74,823,640.63l-12.89,6.81-6.81-12.89,12.89-6.81m.31-1-14.2,7.5,7.5,14.2,14.2-7.5-7.5-14.2Z"/><rect class="cls-10" x="833.9" y="614.93" width="15.31" height="15.31" transform="translate(-193.39 465.33) rotate(-27.85)"/><path class="cls-6" d="M844.6,612.74l6.81,12.89-12.89,6.81-6.81-12.89,12.89-6.81m.3-1-14.19,7.5,7.5,14.2,14.19-7.5-7.5-14.2Z"/><rect class="cls-10" x="862.29" y="599.93" width="15.31" height="15.31" transform="translate(-183.08 476.8) rotate(-27.85)"/><path class="cls-6" d="M873,597.74l6.81,12.89-12.89,6.81-6.81-12.89L873,597.74m.31-1-14.19,7.5,7.5,14.2,14.19-7.5-7.5-14.2Z"/><rect class="cls-10" x="890.67" y="584.94" width="15.31" height="15.31" transform="translate(-172.79 488.32) rotate(-27.85)"/><path class="cls-6" d="M901.37,582.74l6.81,12.89-12.89,6.81-6.81-12.89,12.89-6.81m.31-1-14.2,7.5,7.5,14.19,14.2-7.5-7.5-14.19Z"/><rect class="cls-10" x="919.06" y="569.94" width="15.31" height="15.31" transform="translate(-162.49 499.88) rotate(-27.85)"/><path class="cls-6" d="M929.75,567.74l6.81,12.89-12.88,6.81-6.81-12.89,12.88-6.81m.31-1-14.19,7.5,7.5,14.19,14.19-7.5-7.5-14.19Z"/><rect class="cls-10" x="770.43" y="666.62" width="15.31" height="15.31" transform="translate(-224.89 441.67) rotate(-27.85)"/><path class="cls-6" d="M781.13,664.43l6.81,12.89-12.89,6.81-6.81-12.89,12.89-6.81m.31-1-14.2,7.5,7.5,14.2,14.2-7.5-7.5-14.2Z"/><rect class="cls-10" x="784.63" y="659.12" width="15.31" height="15.31" transform="translate(-219.73 447.37) rotate(-27.85)"/><path class="cls-6" d="M795.32,656.93l6.81,12.89-12.89,6.81-6.81-12.89,12.89-6.81m.31-1-14.19,7.5,7.5,14.2,14.19-7.5-7.5-14.2Z"/><rect class="cls-10" x="798.82" y="651.62" width="15.31" height="15.31" transform="translate(-214.58 453.13) rotate(-27.85)"/><path class="cls-6" d="M809.52,649.43l6.8,12.89-12.88,6.81-6.81-12.89,12.89-6.81m.3-1-14.19,7.49,7.5,14.2,14.19-7.5-7.5-14.19Z"/><rect class="cls-10" x="813.01" y="644.13" width="15.31" height="15.31" transform="translate(-209.45 458.98) rotate(-27.86)"/><path class="cls-6" d="M823.71,641.93l6.81,12.89-12.89,6.81-6.81-12.89,12.89-6.81m.31-1-14.2,7.5,7.5,14.19,14.2-7.5L824,640.94Z"/><rect class="cls-10" x="827.21" y="636.63" width="15.31" height="15.31" transform="translate(-204.29 464.66) rotate(-27.85)"/><path class="cls-6" d="M837.9,634.43l6.81,12.89-12.89,6.81L825,641.24l12.89-6.81m.31-1L824,640.94l7.5,14.19,14.19-7.5-7.5-14.19Z"/><rect class="cls-10" x="841.4" y="629.13" width="15.31" height="15.31" transform="translate(-199.15 470.48) rotate(-27.85)"/><path class="cls-6" d="M852.09,626.93l6.81,12.89L846,646.63l-6.81-12.89,12.88-6.81m.31-1-14.19,7.5,7.5,14.19,14.19-7.5-7.5-14.19Z"/><rect class="cls-10" x="869.78" y="614.13" width="15.31" height="15.31" transform="translate(-188.85 482) rotate(-27.85)"/><path class="cls-6" d="M880.48,611.94l6.81,12.88-12.89,6.81-6.81-12.88,12.89-6.81m.31-1-14.19,7.5,7.49,14.19,14.2-7.5-7.5-14.19Z"/><rect class="cls-10" x="883.98" y="606.63" width="15.31" height="15.31" transform="translate(-183.7 487.74) rotate(-27.85)"/><path class="cls-6" d="M894.67,604.44l6.81,12.88-12.88,6.81-6.81-12.88,12.88-6.81m.31-1-14.19,7.5,7.5,14.19,14.19-7.5L895,603.44Z"/><rect class="cls-10" x="898.17" y="599.13" width="15.31" height="15.31" transform="translate(-178.55 493.47) rotate(-27.85)"/><path class="cls-6" d="M908.87,596.94l6.81,12.88-12.89,6.81L896,603.75l12.89-6.81m.31-1-14.2,7.5,7.5,14.19,14.19-7.5-7.49-14.19Z"/><rect class="cls-10" x="912.36" y="591.63" width="15.31" height="15.31" transform="translate(-173.41 499.29) rotate(-27.85)"/><path class="cls-6" d="M923.06,589.44l6.81,12.89L917,609.14l-6.81-12.89,12.89-6.81m.31-1-14.19,7.5,7.49,14.19,14.2-7.5-7.5-14.19Z"/><rect class="cls-10" x="926.56" y="584.13" width="15.31" height="15.31" transform="translate(-168.25 504.99) rotate(-27.85)"/><path class="cls-6" d="M937.25,581.94l6.81,12.89-12.88,6.81-6.81-12.89,12.88-6.81m.31-1-14.19,7.5,7.5,14.19,14.19-7.5-7.5-14.19Z"/><rect class="cls-10" x="940.75" y="576.63" width="15.31" height="15.31" transform="translate(-163.11 510.82) rotate(-27.85)"/><path class="cls-6" d="M951.45,574.44l6.81,12.89-12.89,6.81-6.81-12.89,12.89-6.81m.3-1-14.19,7.5,7.5,14.19,14.19-7.5-7.5-14.19Z"/><rect x="530.15" y="47.59" width="109.33" height="295.67" transform="translate(685.24 803.8) rotate(-117.85)"/><line class="cls-11" x1="189.32" y1="588.15" x2="371.95" y2="491.66"/><line class="cls-11" x1="198.18" y1="604.92" x2="380.81" y2="508.43"/><line class="cls-11" x1="207.04" y1="621.69" x2="389.66" y2="525.19"/><line class="cls-11" x1="215.9" y1="638.45" x2="398.52" y2="541.96"/><line class="cls-11" x1="224.76" y1="655.22" x2="407.38" y2="558.73"/><line class="cls-11" x1="233.62" y1="671.99" x2="416.24" y2="575.49"/><line class="cls-11" x1="242.48" y1="688.75" x2="425.1" y2="592.26"/><line class="cls-11" x1="251.34" y1="705.52" x2="433.96" y2="609.02"/><line class="cls-11" x1="260.2" y1="722.29" x2="351.47" y2="674.06"/><line class="cls-11" x1="277.92" y1="755.82" x2="460.54" y2="659.32"/><line class="cls-11" x1="286.77" y1="772.58" x2="469.4" y2="676.09"/><line class="cls-11" x1="295.63" y1="789.35" x2="478.26" y2="692.86"/><line class="cls-11" x1="304.49" y1="806.12" x2="487.11" y2="709.62"/><line class="cls-11" x1="313.35" y1="822.88" x2="495.97" y2="726.39"/><line class="cls-11" x1="322.21" y1="839.65" x2="504.83" y2="743.16"/><line class="cls-11" x1="331.07" y1="856.42" x2="513.69" y2="759.92"/><line class="cls-11" x1="339.93" y1="873.18" x2="522.55" y2="776.69"/><line class="cls-11" x1="348.79" y1="889.95" x2="531.41" y2="793.46"/><line class="cls-11" x1="357.65" y1="906.72" x2="448.92" y2="858.49"/><line class="cls-11" x1="398.12" y1="477.83" x2="580.74" y2="381.34"/><line class="cls-11" x1="406.98" y1="494.6" x2="589.6" y2="398.1"/><line class="cls-11" x1="415.84" y1="511.36" x2="598.46" y2="414.87"/><line class="cls-11" x1="424.7" y1="528.13" x2="489.87" y2="493.7"/><line class="cls-11" x1="433.56" y1="544.9" x2="616.18" y2="448.41"/><line class="cls-11" x1="442.42" y1="561.67" x2="625.04" y2="465.17"/><line class="cls-11" x1="451.28" y1="578.43" x2="633.9" y2="481.94"/><line class="cls-11" x1="460.14" y1="595.2" x2="642.76" y2="498.71"/><line class="cls-11" x1="469" y1="611.97" x2="651.62" y2="515.47"/><line class="cls-11" x1="477.86" y1="628.73" x2="582.18" y2="573.61"/><line class="cls-11" x1="589.2" y1="333.97" x2="771.82" y2="237.48"/><line class="cls-11" x1="597.55" y1="349.78" x2="780.17" y2="253.28"/><line class="cls-11" x1="605.9" y1="365.58" x2="788.52" y2="269.09"/><line class="cls-11" x1="614.25" y1="381.39" x2="796.87" y2="284.89"/><line class="cls-11" x1="622.6" y1="397.19" x2="805.22" y2="300.7"/><line class="cls-11" x1="630.95" y1="413" x2="813.57" y2="316.5"/><line class="cls-11" x1="639.3" y1="428.8" x2="821.93" y2="332.31"/><line class="cls-11" x1="647.66" y1="444.61" x2="830.28" y2="348.11"/><line class="cls-11" x1="656.01" y1="460.41" x2="838.63" y2="363.92"/><line class="cls-11" x1="664.36" y1="476.21" x2="768.68" y2="421.09"/><rect x="125.31" y="408.42" width="442.7" height="7.38" transform="translate(-152.37 209.69) rotate(-27.85)"/><rect x="479.53" y="598.92" width="206.55" height="14.76" transform="translate(-215.74 342.51) rotate(-27.85)"/><line class="cls-11" x1="504.52" y1="679.19" x2="584.58" y2="636.89"/><line class="cls-11" x1="513.35" y1="695.91" x2="593.42" y2="653.61"/><line class="cls-11" x1="522.19" y1="712.64" x2="602.25" y2="670.33"/><line class="cls-11" x1="531.02" y1="729.36" x2="611.09" y2="687.05"/><line class="cls-11" x1="539.86" y1="746.08" x2="619.92" y2="703.78"/><line class="cls-11" x1="548.7" y1="762.8" x2="628.76" y2="720.5"/><line class="cls-11" x1="557.53" y1="779.52" x2="637.59" y2="737.22"/><line class="cls-11" x1="566.37" y1="796.25" x2="646.43" y2="753.94"/><rect x="560.04" y="241.54" width="208.68" height="22.76" transform="translate(-41.2 339.68) rotate(-27.85)"/><path d="M198.43,448.43,180.37,458,124,423.57l26.51,50.18-16.93,8.94L92.69,405.26l18.07-9.55,56.4,34.52L140.59,380,157.52,371Z"/><path d="M261,415.38l-48.1,25.42L172,363.37,220.08,338l7.64,14.45-31.18,16.48,9,17,22.92-12.11,7.64,14.45-22.92,12.11,9,17.09,31.17-16.48Z"/><path d="M338.29,275.49l18.19,89.43-18.73,9.9-39.57-42L311,389l-18.74,9.9L228,333.78,246.4,324l42.13,43L273.92,309.5l18.42-9.73,40,42.27L320.38,285Z"/><path d="M424.92,299.84A25.1,25.1,0,0,1,428,311.56a27.42,27.42,0,0,1-2.26,11.1,32.1,32.1,0,0,1-6.46,9.59,37.44,37.44,0,0,1-9.44,7.1,34.35,34.35,0,0,1-9.51,3.34,29.65,29.65,0,0,1-10.21.21,31.69,31.69,0,0,1-10.28-3.51,35.84,35.84,0,0,1-9.65-7.82L384,320.92a16.64,16.64,0,0,0,4.56,3.46,14.51,14.51,0,0,0,4.71,1.48,14.19,14.19,0,0,0,4.56-.17,15.44,15.44,0,0,0,4.2-1.49,16.15,16.15,0,0,0,4.54-3.42,13.78,13.78,0,0,0,2.58-4,9.78,9.78,0,0,0,.73-4.18,9,9,0,0,0-1-3.79,8.65,8.65,0,0,0-4.22-3.85,11.79,11.79,0,0,0-7.19-.49l-13.34,2.62a29.54,29.54,0,0,1-9.67.39,27.13,27.13,0,0,1-8.25-2.44,24.44,24.44,0,0,1-6.59-4.67,26.28,26.28,0,0,1-4.72-6.36,26.62,26.62,0,0,1-2.89-9.43,25.07,25.07,0,0,1,.85-10,26.54,26.54,0,0,1,5.12-9.44,33.27,33.27,0,0,1,19-10.89,28.14,28.14,0,0,1,9.9,0,29.55,29.55,0,0,1,9.91,3.75,34.9,34.9,0,0,1,9.18,8.12l-14.22,10a16.94,16.94,0,0,0-4.15-3.36,13.45,13.45,0,0,0-4.25-1.52,12.08,12.08,0,0,0-4.07,0,12.78,12.78,0,0,0-3.65,1.24,11.23,11.23,0,0,0-3.47,2.69,9.86,9.86,0,0,0-1.85,3.22,8,8,0,0,0-.4,3.38,8.44,8.44,0,0,0,1,3.19,9.09,9.09,0,0,0,3.93,3.8,9.9,9.9,0,0,0,6.44.82l14.7-2.28a34.44,34.44,0,0,1,9.62-.23,28,28,0,0,1,8.19,2.24,23.14,23.14,0,0,1,6.52,4.41A24.68,24.68,0,0,1,424.92,299.84Z"/><rect class="cls-12" x="634.8" y="590.72" width="88.56" height="143.02" transform="translate(-230.72 393.96) rotate(-27.85)"/><rect x="145.99" y="447.57" width="442.7" height="7.38" transform="translate(-168.27 223.88) rotate(-27.85)"/></g><circle cx="396.01" cy="501.31" r="147.87"/><circle class="cls-10" cx="407.93" cy="484.54" r="162.42"/><g class="cls-13"><rect class="cls-6" x="227.51" y="505.6" width="286.39" height="221.3" transform="translate(-327.45 788.77) rotate(-72.85)"/></g><path class="cls-10" d="M458.34,577.73h29.55a0,0,0,0,1,0,0v58.49a8.23,8.23,0,0,1-8.23,8.23H466.57a8.23,8.23,0,0,1-8.23-8.23V577.73a0,0,0,0,1,0,0Z" transform="translate(-229.77 289.81) rotate(-27.69)"/><path class="cls-6" d="M480.35,593.07l-9.65-18.39-26.17,13.73,13.26,25.26C453.46,596.12,475.58,584,480.35,593.07Z"/><circle class="cls-10" cx="407.93" cy="484.54" r="114.91"/><circle class="cls-6" cx="407.93" cy="484.54" r="104.43"/><path class="cls-5" d="M347.41,569.65A104.43,104.43,0,0,0,493,545.07c.6-.84,1.15-1.71,1.72-2.56a104.4,104.4,0,0,1-170.08-121c-.62.82-1.25,1.62-1.85,2.47A104.42,104.42,0,0,0,347.41,569.65Z"/><path class="cls-5" d="M311.73,422.89A114.92,114.92,0,0,1,508.82,539.58,114.92,114.92,0,1,0,304.5,434.46,116.46,116.46,0,0,1,311.73,422.89Z"/><circle class="cls-1" cx="407.93" cy="484.54" r="104.43"/><g class="cls-14"><circle cx="407.93" cy="484.54" r="104.43"/></g><path class="cls-5" d="M502.07,352.18a162.43,162.43,0,0,0-226.5,38.23c-.76,1.07-1.51,2.15-2.24,3.24A162.42,162.42,0,0,1,538,581.86c.79-1.05,1.56-2.11,2.32-3.18A162.43,162.43,0,0,0,502.07,352.18Z"/><g class="cls-15"><polygon class="cls-10" points="936.17 403.61 885.78 361.89 865.83 351.35 847.32 371.84 873.42 385.3 936.17 403.61"/><polygon class="cls-10" points="883.43 366.35 897.58 376.69 893.48 375.69 908.43 385.76 903.04 384.52 920.16 394.5 916.88 410.45 865.28 389.54 883.43 366.35"/><rect class="cls-6" x="917.36" y="384.77" width="25.69" height="27.3" transform="translate(1716.96 -237.99) rotate(117.84)"/><polygon class="cls-5" points="917.62 393.02 943.15 407.33 939.68 390.37 925.03 375.43 917.62 393.02"/></g><path class="cls-6" d="M494.23,178.33,876.17,380.09c3.48,1.84.72,7.05-2.75,5.21L492.62,184.15a1.29,1.29,0,0,1-.54-1.74Z"/><path class="cls-10" d="M494.23,178.33,876.17,380.09a11,11,0,0,0,7.26-13.74L501.49,164.59Z"/><path class="cls-5" d="M505,160.74l380.8,201.15a2.52,2.52,0,0,1-2.35,4.46L501.49,164.59l1.75-3.32A1.3,1.3,0,0,1,505,160.74Z"/><path class="cls-10" d="M434.68,138h24.83a0,0,0,0,1,0,0v9.55a4.93,4.93,0,0,1-4.93,4.93h-15a4.93,4.93,0,0,1-4.93-4.93V138A0,0,0,0,1,434.68,138Z" transform="translate(784.37 -182.22) rotate(117.84)"/><path class="cls-10" d="M478.76,162.38h27.75a0,0,0,0,1,0,0v10.77a3.31,3.31,0,0,1-3.31,3.31H482.08a3.31,3.31,0,0,1-3.31-3.31V162.38A0,0,0,0,1,478.76,162.38Z" transform="translate(872.54 -187.04) rotate(117.84)"/><rect class="cls-10" x="471.29" y="163.41" width="27.75" height="4.14" rx="1.66" ry="1.66" transform="translate(858.09 -186.22) rotate(117.84)"/><path class="cls-10" d="M461,168.38l13.55,7.16a3.33,3.33,0,0,0,4.48-1.38l9.86-18.68a3.31,3.31,0,0,0-1.38-4.48l-13.55-7.15-.45.86L471,143.39l.45-.86-2.19-1.16-.46.86-2.49-1.31.46-.87-9.31-4.91-13,24.54,9.3,4.91.46-.86,2.49,1.31-.46.87,2.2,1.16.46-.86,2.49,1.31Z"/><rect class="cls-5" x="470.05" y="130.84" width="11.98" height="54.17" transform="translate(838.03 -189.24) rotate(117.84)"/><path class="cls-6" d="M494.86,180.29l4.56-8.63-8.71-4.6a3.58,3.58,0,0,0-4.83,1.49l-1.22,2.32a3.57,3.57,0,0,0,1.49,4.82Z"/><path class="cls-6" d="M478.18,174.32h0l7-13.28h0a1.92,1.92,0,0,0-2.59.8l-.12.21a.58.58,0,0,1-.79.25L468,155.06l.68-1.3-2.26-1.2-.69,1.3-2.42-1.27.69-1.3-2.27-1.2-.69,1.3-9.52-5L447,155l9.52,5-.71,1.35,2.27,1.2.71-1.35,2.42,1.28-.71,1.35,2.26,1.19.72-1.34,13.7,7.23a.58.58,0,0,1,.24.8h0A1.92,1.92,0,0,0,478.18,174.32Z"/><path class="cls-5" d="M805.46,325.16c-12.77-6.37-25.45-12.9-38.17-19.35l-38-19.62c-25.35-13.09-50.59-26.38-75.83-39.67s-50.41-26.71-75.5-40.27L540.28,185.9c-12.49-6.88-25-13.67-37.49-20.62,12.77,6.36,25.44,12.9,38.17,19.34l38,19.62c25.34,13.09,50.58,26.38,75.82,39.67s50.41,26.72,75.51,40.28L768,304.54C780.46,311.42,793,318.2,805.46,325.16Z"/></svg>