<?xml version="1.0" encoding="utf-8"?>
<!DOCTYPE svg PUBLIC "-//W3C//DTD SVG 1.0//EN" "http://www.w3.org/TR/2001/REC-SVG-20010904/DTD/svg10.dtd">
<svg version="1.0" id="Layer_1" xmlns="http://www.w3.org/2000/svg" xmlns:xlink="http://www.w3.org/1999/xlink" viewBox="0 0 276 40" height="40" width="276"><path d="M.04 28.98c0-1.02 1.12-.83 2.08-1.21 1.44-.58 1.47-1.88 1.47-3.59V10.64c0-1.7-.03-3-1.47-3.58-.96-.39-2.08-.2-2.08-1.22 0-.43.21-.66.63-.66H11.9c8.68 0 14.23 4.48 14.23 11.58 0 7.83-5.55 12.88-14.23 12.88H.67c-.42 0-.63-.23-.63-.66zm20.84-11.12c0-6.54-3.34-10.72-8.6-10.72-3.26 0-3.6 1.4-3.6 4.44v11.66c0 3.05.34 4.45 3.6 4.45 5.25 0 8.6-3.74 8.6-9.83zm7.43 11.78c-.48 0-.81-.2-.81-.66 0-.98.89-.83 1.63-1.21 1.15-.52 1.22-1.79 1.22-3.43v-13.7c0-1.71-.03-3.02-1.42-3.57-1.01-.4-2.13-.2-2.13-1.23 0-.43.21-.66.63-.66h16.82c.77 0 1.06.33 1.06.98v3.53c0 .63-.22.9-.7.9-.97 0-.52-1.25-1.2-2.2s-2.07-1.25-5.48-1.25c-1.88 0-2.5.49-2.5 2.04v5.38c0 1.02.3 1.47 1.1 1.47h1.15c1.55 0 2.9-.2 3.63-1.06.86-1 .54-1.88 1.33-1.88a.59.59 0 0 1 .67.58v6.97a.68.68 0 0 1-.73.76c-.87 0-.58-.92-.99-1.86-.53-1.23-1.7-1.55-3.67-1.55h-1.38c-.94 0-1.1.53-1.1 1.96v5.7c0 1.55.57 2.04 3.1 2.04 3.56 0 4.7-.52 5.55-1.71s.83-2.37 1.8-2.37c.42 0 .6.24.5.85l-.6 3.55c-.2 1.15-.67 1.64-1.62 1.64H28.31zm44.15-.77c0 .57-.34.77-1.1.77h-3.92c-1.23 0-1.94-.5-2.76-1.9l-4.26-7.28a2.2 2.2 0 0 0-2.33-1.42h-.47c-1.02 0-1.3.28-1.3 1.27v3.83c0 1.83.44 2.98 1.38 3.54.78.46 1.67.41 1.67 1.3 0 .46-.2.66-.85.66h-9.34c-.48 0-.8-.2-.8-.66 0-.98.88-.83 1.75-1.25 1.02-.48 1.09-1.75 1.09-3.39v-13.7c0-1.7-.03-3.03-1.3-3.54-1.13-.45-2.25-.24-2.25-1.26 0-.43.21-.66.63-.66h11.64c5.3 0 8.28 2.25 8.28 6.44a6.66 6.66 0 0 1-3.65 5.98c-.34.19-.29.4.04.9l5 7.64c1.75 2.66 2.85 1.46 2.85 2.73zm-9.14-16.55c0-3.49-1.84-5.1-4.85-5.1-1.87 0-2.16.44-2.16 1.7v6.6c0 1.15.16 1.56 1.76 1.56h1.04c2.93 0 4.2-1.77 4.2-4.76zm22.45 18.74c-3.06 0-5.37-1.42-7.79-1.42-.84 0-1.17-.57-1.32-1.59l-.8-5.38c-.17-1.16-.14-2.08.84-2.08.8 0 .95.6 1.15 1.83.6 3.48 3.24 6.24 8.08 6.24 3.32 0 6.1-1.74 6.1-5.01 0-3.06-2.7-4.12-7.13-6-5.27-2.22-8.62-4.32-8.62-8.98C76.3 3.96 79.58 0 85.65 0c3.12 0 4.64.98 7.4 1.15a.9.9 0 0 1 .98.94c.04.54.56 6.24.56 6.7 0 .68-.25 1.04-.92 1.04-.96 0-1.11-.93-1.26-1.97-.51-3.74-3.19-5.74-6.85-5.74-3.23 0-5.25 1.88-5.25 4.36 0 2.15 1.75 3.58 5.8 5.25C91.5 14 96 15.67 96 21.41c0 6-4.62 9.68-10.24 9.66zm17.82-1.42c-.65 0-.96-.2-.96-.66.01-1 1.19-.83 2.36-1.26 1.38-.5 1.5-1.83 1.5-3.53V9.35c0-1.47-.21-1.84-2.33-1.84-2.85 0-3.76.12-4.28 1.6-.69 1.97-.35 2.6-1.37 2.6-.62 0-.83-.36-.83-1.1 0-.66.13-1.56.2-4.12.02-.86.13-1.3.74-1.3h20.84c.58 0 .73.44.73 1.3-.01 2.45.17 3.46.17 4.12 0 .74-.21 1.1-.83 1.1-1.02 0-.68-.63-1.37-2.6-.52-1.48-1.43-1.6-4.28-1.6-2.05 0-2.25.37-2.25 1.84v14.84c0 1.7.11 3.04 1.5 3.53 1.18.42 2.34.27 2.35 1.26 0 .46-.3.66-.95.66h-10.94zm15.21 0a.6.6 0 0 1-.7-.66c0-.8.92-.95 1.6-1.22 1-.4 1.43-1.27 2.13-2.85l8.88-20.14a.63.63 0 0 1 1.22 0l8.8 20.04c.7 1.59 1.18 2.36 2.12 2.85.7.37 1.6.52 1.6 1.26 0 .48-.26.72-.85.72h-9.34c-.43 0-.83-.24-.83-.62 0-.45.4-.78 1.23-.94 1.18-.22 1.24-.5 1.24-.9a6.73 6.73 0 0 0-.7-2.53l-.66-1.7c-.5-1.27-.47-1.66-2.2-1.66h-4.44c-1.46 0-2.09.01-2.73 1.59l-1.02 2.5a4.14 4.14 0 0 0-.32 1.26c0 1 .57 1.15 1.92 1.33 1.26.18 1.97.33 1.97 1.05a.56.56 0 0 1-.63.63h-8.29zm13.43-10.34a.47.47 0 0 0 .45-.53 3.29 3.29 0 0 0-.29-.98l-2.23-5.47c-.17-.4-.2-.48-.33-.48-.16 0-.19.07-.36.44l-2.24 5.51a3.72 3.72 0 0 0-.33.98.48.48 0 0 0 .49.53zM0 39.38v-2.15a.57.57 0 0 1 .62-.62H274.6a.57.57 0 0 1 .62.62v2.15a.57.57 0 0 1-.62.62H.62a.57.57 0 0 1-.62-.62zM167.96 30c-.58 0-1.28-.39-2.25-1.51L152.06 12.5c-.48-.55-.65-.7-.86-.7-.28 0-.32.25-.32.58v8.01c0 3.1.01 5.7 1.22 6.92s3.14.43 3.14 1.7a.55.55 0 0 1-.63.63h-8.3c-.49 0-.74-.2-.74-.66 0-.98 1.06-.76 1.8-1.59 1.12-1.27 1.14-2.88 1.14-6.1v-9.6c0-1.97-.06-3.35-.84-4.18-1.1-1.16-2.63-.53-2.63-1.69 0-.4.17-.65.53-.65h5.83c.98 0 1.26.4 2.16 1.46L164.9 19.9c.75.88 1.06 1.22 1.38 1.22.25 0 .41-.16.41-.61V13.8c0-3.08-.06-5.31-1.26-6.4-1.32-1.19-3.13-.4-3.13-1.66a.55.55 0 0 1 .62-.63h8.31c.5 0 .7.2.7.67 0 .97-1.09.72-1.84 1.53-1.06 1.14-1.12 2.5-1.12 5.65v16.03a.96.96 0 0 1-1.01 1.02zm5.6-1.03c0-.98.88-.84 1.63-1.18 1.02-.47 1.21-1.56 1.21-3.46v-13.7c0-1.71-.02-3.01-1.46-3.59-.97-.38-2.09-.2-2.09-1.21 0-.43.22-.66.63-.66h11.24c8.68 0 14.23 4.48 14.23 11.6 0 7.8-5.55 12.86-14.23 12.86h-10.36c-.48 0-.8-.2-.8-.66zm20.13-11.32c0-6.3-3.34-10.52-8.6-10.52-3.27 0-3.6 1.4-3.6 4.44v11.66c0 3.05.33 4.45 3.6 4.45 5.26 0 8.6-3.7 8.6-10.03zm4.97 11.98a.6.6 0 0 1-.7-.66c0-.8.91-.95 1.6-1.22 1-.4 1.43-1.27 2.13-2.85l8.87-20.14a.63.63 0 0 1 1.23 0l8.8 20.04c.7 1.59 1.18 2.36 2.12 2.85.69.37 1.6.52 1.6 1.26 0 .48-.26.72-.86.72h-9.33c-.44 0-.84-.24-.84-.62 0-.45.4-.78 1.23-.94 1.19-.22 1.24-.5 1.24-.9a6.73 6.73 0 0 0-.7-2.53l-.66-1.7c-.5-1.27-.46-1.66-2.2-1.66h-4.43c-1.46 0-2.08.01-2.72 1.59l-1.02 2.5a4.14 4.14 0 0 0-.33 1.26c0 1 .57 1.15 1.92 1.33 1.26.18 1.97.33 1.97 1.05a.56.56 0 0 1-.63.63h-8.28zm13.43-10.34a.47.47 0 0 0 .45-.53 3.29 3.29 0 0 0-.29-.98l-2.23-5.47c-.17-.4-.21-.48-.33-.48-.17 0-.2.07-.36.44l-2.25 5.51a3.72 3.72 0 0 0-.32.98.48.48 0 0 0 .48.53zm37.24 9.57c0 .57-.34.77-1.1.77h-3.91c-1.24 0-1.95-.5-2.76-1.9l-4.26-7.28a2.2 2.2 0 0 0-2.33-1.42h-.48c-1.02 0-1.3.28-1.3 1.26v3.83c0 1.84.45 2.99 1.4 3.55.76.46 1.66.41 1.66 1.3 0 .46-.2.66-.86.66h-9.34c-.48 0-.8-.2-.8-.66 0-.98.89-.83 1.76-1.25 1.02-.48 1.08-1.75 1.08-3.39v-13.7c0-1.71-.02-3.03-1.3-3.54-1.13-.45-2.24-.24-2.24-1.26 0-.43.2-.66.62-.66h11.65c5.3 0 8.27 2.25 8.27 6.44a6.66 6.66 0 0 1-3.64 5.98c-.34.19-.29.4.03.9l5 7.63c1.76 2.67 2.85 1.47 2.85 2.73zm-9.14-16.55c0-3.48-1.84-5.1-4.85-5.1-1.87 0-2.16.44-2.16 1.71v6.6c0 1.14.17 1.55 1.76 1.55h1.04c2.94 0 4.2-1.77 4.2-4.76zm10.16 16.67c0-.98.9-.84 1.64-1.18 1.02-.47 1.2-1.56 1.2-3.46v-13.7c0-1.72-.01-3.01-1.45-3.6-.97-.38-2.09-.2-2.09-1.2 0-.44.22-.67.63-.67h11.23c8.69 0 14.23 4.49 14.23 11.6 0 7.81-5.54 12.87-14.23 12.87h-10.35c-.48 0-.8-.2-.8-.66zm20.14-11.33c0-6.3-3.34-10.52-8.6-10.52-3.27 0-3.6 1.4-3.6 4.45v11.65c0 3.05.33 4.45 3.6 4.45 5.25 0 8.6-3.7 8.6-10.03z" fill="var(--tint,#343434)"></path></svg>
