<?xml version="1.0" encoding="utf-8"?>
<!-- Generator: Adobe Illustrator 19.0.0, SVG Export Plug-In . SVG Version: 6.00 Build 0)  -->
<svg version="1.1" id="Layer_1" xmlns="http://www.w3.org/2000/svg" xmlns:xlink="http://www.w3.org/1999/xlink" x="0px" y="0px"
	 viewBox="419 -181 897 422" style="enable-background:new 419 -181 897 422;" xml:space="preserve">
<style type="text/css">
	.st0{fill:#FED503;}
	.st1{fill:#FFD504;}
	.st2{fill:none;stroke:#808184;stroke-width:2;stroke-linecap:round;stroke-linejoin:round;stroke-miterlimit:10;}
	.st3{fill:#808184;}
	.st4{fill:none;stroke:#808184;stroke-width:2;stroke-miterlimit:10;}
	.st5{fill:none;stroke:#808184;stroke-width:2;stroke-linecap:round;stroke-miterlimit:10;}
	.st6{fill:#FFD504;stroke:#808184;stroke-width:2;stroke-miterlimit:10;}
	.st7{font-family:'Helvetica';}
	.st8{font-size:36px;}
	.st9{fill:#888888;}
	.st10{font-size:24px;}
</style>
<g>
	<circle class="st0" cx="657.1" cy="-1.1" r="11"/>
	<circle class="st0" cx="1081.7" cy="-1.1" r="11"/>
	<path class="st1" d="M761.8-46.1c-7.4-17.9,1.1-38.4,19.1-45.8c17.9-7.4,38.4,1.1,45.8,19.1"/>
	<g>
		<path class="st2" d="M821.2,36.5h-40.6c-1.6,0-2.9-1.3-2.9-2.9V14.8v-50.3v-15.1c0-1.6,1.3-2.9,2.9-2.9h61c1.6,0,2.9,1.3,2.9,2.9
			v14.5"/>
		<path class="st2" d="M867.7,33.6c0,1.6-1.3,2.9-2.9,2.9h-31.9c-1.6,0-2.9-1.3-2.9-2.9v-58.1c0-1.6,1.3-2.9,2.9-2.9h31.9
			c1.6,0,2.9,1.3,2.9,2.9V33.6z"/>
		<circle class="st3" cx="811" cy="26.3" r="2.9"/>
		<circle class="st3" cx="848.8" cy="26.3" r="2.9"/>
	</g>
	<g>
		<path id="XMLID_4_" class="st2" d="M764.4,23.9c3.7,6.4,0.5,12.6-6.9,12.6h-43.1c-7.4,0-10.6-6.3-6.9-12.7l21.7-37.4
			c3.7-6.4,9.8-6.4,13.5,0L764.4,23.9z"/>
		<line id="XMLID_3_" class="st2" x1="735.9" y1="-2.5" x2="735.9" y2="15.2"/>
		<circle id="XMLID_2_" class="st2" cx="735.8" cy="24.1" r="2.7"/>
	</g>
	<path id="XMLID_5_" class="st2" d="M855.7-36.4v-30.5c0-3.4,2.4-5.9,5.9-5.9h144.9c3.4,0,5.9,2.8,5.9,6.2V36.5"/>
	<line class="st2" x1="855.7" y1="-60" x2="1012.2" y2="-60"/>
	<circle class="st2" cx="655.3" cy="-2.4" r="19.9"/>
	<line class="st2" x1="655.3" y1="17.5" x2="655.3" y2="36.5"/>
	<circle class="st4" cx="655.3" cy="-2.4" r="12.9"/>
	<line class="st5" x1="655.3" y1="-27.4" x2="655.3" y2="-44.8"/>
	<line class="st5" x1="672.6" y1="-20" x2="684.9" y2="-32.4"/>
	<line class="st5" x1="637.7" y1="-20.3" x2="625.4" y2="-32.6"/>
	<circle class="st2" cx="1079.6" cy="-2.4" r="19.9"/>
	<line class="st2" x1="1079.6" y1="17.5" x2="1079.6" y2="36.5"/>
	<circle class="st4" cx="1079.6" cy="-2.4" r="12.9"/>
	<line class="st5" x1="1079.6" y1="-27.4" x2="1079.6" y2="-44.8"/>
	<line class="st5" x1="1096.9" y1="-20" x2="1109.2" y2="-32.4"/>
	<line class="st5" x1="1062" y1="-20.3" x2="1049.7" y2="-32.6"/>
	<line class="st2" x1="1036.3" y1="36.5" x2="876.5" y2="36.5"/>
	<line class="st2" x1="555.4" y1="36.5" x2="675.2" y2="36.5"/>
	<line class="st2" x1="1059.8" y1="36.5" x2="1179.6" y2="36.5"/>
	<path id="XMLID_8_" class="st2" d="M942.5-2.3c0.7-0.2,1.3-0.8,1.3-1.5c0,0,0.1-0.6,0.1-1.6S943.8-7,943.8-7
		c-0.1-0.7-0.7-1.4-1.3-1.5l-5.1-1.2c-0.7-0.2-1.4-0.8-1.6-1.5l-0.7-1.6c-0.3-0.6-0.3-1.6,0.1-2.2l2.7-4.5c0.4-0.6,0.3-1.5-0.2-2
		l-2.3-2.3c-0.5-0.5-1.4-0.5-2-0.2l-4.5,2.7c-0.6,0.4-1.6,0.4-2.2,0.1l-1.6-0.7c-0.6-0.2-1.3-1-1.5-1.6l-1.2-5.1
		c-0.2-0.7-0.8-1.3-1.5-1.3c0,0-0.6-0.1-1.6-0.1s-1.6,0.1-1.6,0.1c-0.7,0.1-1.4,0.7-1.5,1.3l-1.2,5.1c-0.2,0.7-0.8,1.4-1.5,1.6
		l-1.6,0.7c-0.6,0.3-1.6,0.3-2.2-0.1l-4.5-2.7c-0.6-0.4-1.5-0.3-2,0.2l-2.3,2.3c-0.5,0.5-0.5,1.4-0.2,2l2.7,4.5
		c0.4,0.6,0.4,1.6,0.1,2.2l-0.7,1.6c-0.2,0.6-1,1.3-1.6,1.5l-5.1,1.2c-0.7,0.2-1.3,0.8-1.3,1.5c0,0-0.1,0.6-0.1,1.6s0.1,1.6,0.1,1.6
		c0.1,0.7,0.7,1.4,1.3,1.5l5.1,1.2c0.7,0.2,1.4,0.8,1.6,1.5l0.7,1.6c0.3,0.6,0.3,1.6-0.1,2.2l-2.7,4.5c-0.4,0.6-0.3,1.5,0.2,2
		l2.3,2.3c0.5,0.5,1.4,0.5,2,0.2l4.5-2.7c0.6-0.4,1.6-0.4,2.2-0.1l1.6,0.7c0.6,0.2,1.3,1,1.5,1.6l1.2,5.1c0.2,0.7,0.8,1.3,1.5,1.3
		c0,0,0.6,0.1,1.6,0.1s1.6-0.1,1.6-0.1c0.7-0.1,1.4-0.7,1.5-1.3l1.2-5.1c0.2-0.7,0.8-1.4,1.5-1.6l1.6-0.7c0.6-0.3,1.6-0.3,2.2,0.1
		l4.5,2.7c0.6,0.4,1.5,0.3,2-0.2l2.3-2.3c0.5-0.5,0.5-1.4,0.2-2l-2.7-4.5c-0.4-0.6-0.4-1.6-0.1-2.2l0.7-1.6c0.2-0.6,1-1.3,1.6-1.5
		L942.5-2.3z"/>
	<circle id="XMLID_7_" class="st2" cx="919.5" cy="-5.4" r="9.8"/>
	<path id="XMLID_6_" class="st2" d="M973.5-18.9c0.5,0,1-0.4,1.1-0.8c0,0,0.1-0.4,0.3-1.1c0.2-0.6,0.2-1.1,0.2-1.1
		c0.1-0.5-0.2-1-0.6-1.2l-3.2-1.7c-0.4-0.2-0.8-0.8-0.8-1.3l-0.2-1.2c-0.1-0.5,0.1-1.1,0.4-1.4l2.6-2.5c0.3-0.3,0.4-0.9,0.2-1.4
		l-1.1-1.9c-0.3-0.4-0.9-0.6-1.3-0.5l-3.4,1.1c-0.5,0.1-1.1,0-1.5-0.3l-1-0.7c-0.4-0.3-0.7-0.9-0.7-1.3v-3.6c0-0.5-0.4-1-0.8-1.1
		c0,0-0.4-0.1-1.1-0.3c-0.6-0.2-1.1-0.2-1.1-0.2c-0.5-0.1-1,0.2-1.2,0.6l-1.7,3.2c-0.2,0.4-0.8,0.8-1.3,0.8l-1.2,0.2
		c-0.5,0.1-1.1-0.1-1.4-0.4l-2.5-2.6c-0.3-0.3-0.9-0.4-1.4-0.2l-1.9,1.1c-0.4,0.3-0.6,0.9-0.5,1.3l1.1,3.4c0.1,0.5,0,1.1-0.3,1.5
		l-0.7,1c-0.3,0.4-0.9,0.7-1.3,0.7h-3.6c-0.5,0-1,0.4-1.1,0.8c0,0-0.1,0.4-0.3,1.1c-0.2,0.6-0.2,1.1-0.2,1.1c-0.1,0.5,0.2,1,0.6,1.2
		l3.2,1.7c0.4,0.2,0.8,0.8,0.8,1.3l0.2,1.2c0.1,0.5-0.1,1.1-0.4,1.4l-2.6,2.5c-0.3,0.3-0.4,0.9-0.2,1.4l1.1,1.9
		c0.3,0.4,0.9,0.6,1.3,0.5l3.4-1.1c0.5-0.1,1.1,0,1.5,0.3l1,0.7c0.4,0.3,0.7,0.9,0.7,1.3v3.6c0,0.5,0.4,1,0.8,1.1
		c0,0,0.4,0.1,1.1,0.3c0.6,0.2,1.1,0.2,1.1,0.2c0.5,0.1,1-0.2,1.2-0.6l1.7-3.2c0.2-0.4,0.8-0.8,1.3-0.8l1.2-0.2
		c0.5-0.1,1.1,0.1,1.4,0.4l2.5,2.6c0.3,0.3,0.9,0.4,1.4,0.2l1.9-1.1c0.4-0.3,0.6-0.9,0.5-1.3l-1.1-3.4c-0.1-0.5,0-1.1,0.3-1.5l0.7-1
		c0.3-0.4,0.9-0.7,1.3-0.7H973.5z"/>
	<circle id="XMLID_1_" class="st2" cx="958.6" cy="-24.9" r="4.9"/>
	<g>
		<path class="st2" d="M784.6-96.4c17.2-3,34.8,6.3,41.7,23.1"/>
		<path class="st2" d="M755.8-44.4c-6.9-16.8-0.8-35.7,13.5-45.7"/>
		
			<rect x="743.2" y="-59.4" transform="matrix(-0.9255 0.3788 -0.3788 -0.9255 1508.6411 -401.3079)" class="st6" width="101.2" height="14.3"/>
		<polyline class="st2" points="775.9,-77.5 766.9,-94.8 783.1,-101.5 788.8,-82.8 		"/>
	</g>
</g>
<text transform="matrix(1 0 0 1 633.7108 148)" class="st7 st8">We're down for maintenance.</text>
<text transform="matrix(1 0 0 1 734.7557 186)" class="st9 st7 st10">Please check back soon.</text>
<rect x="813.5" y="77.7" class="st1" width="108" height="4"/>
</svg>
